<svg width="260" height="60" viewBox="0 0 260 60" fill="none" xmlns="http://www.w3.org/2000/svg">
<path d="M37.8 9.84V10.04H36.84C36.8667 10.1733 36.88 10.3067 36.88 10.44C36.88 10.5733 36.88 10.7067 36.88 10.84H29.88C29.88 11.1867 29.7067 11.4533 29.36 11.64C29.2 11.6933 29.08 11.72 29 11.72H20.84C20.7333 11.72 20.6267 11.72 20.52 11.72C20.4133 11.6933 20.3067 11.6667 20.2 11.64H13.68V11.84H17.2C17.1733 11.9733 17.16 12.1067 17.16 12.24C17.16 12.3733 17.16 12.5067 17.16 12.64H15.76C15.7333 12.6933 15.72 12.76 15.72 12.84C15.72 12.92 15.72 12.9867 15.72 13.04H15.84V13.44H15.24V14.24H17.16V14.44H10.68V14.84H12.72V15.64H16.84V15.84H15.16V16.04H14.08V16.84H17.16C17.1867 16.9467 17.2 17.0533 17.2 17.16C17.2 17.24 17.2 17.3333 17.2 17.44H18.32V17.64H13.16V18.04H12V18.24H17.2V18.28H25.2C25.7067 18.28 26 18.5333 26.08 19.04H32V19.64H31.72L31.64 20.44H31.2L31.16 20.84H32.2C32.2 20.92 32.1867 20.9867 32.16 21.04H31.92C31.8933 21.0933 31.88 21.16 31.88 21.24H33.2L33.08 21.84H31.84C31.84 21.8667 31.8267 21.8933 31.8 21.92C31.8 21.9467 31.8 21.9867 31.8 22.04H31.48C31.4533 22.1467 31.4133 22.2533 31.36 22.36C31.3333 22.44 31.3067 22.5333 31.28 22.64H31.76C31.76 22.6667 31.7333 22.7333 31.68 22.84H30.88C30.8267 22.9733 30.76 23.1067 30.68 23.24C30.6267 23.3733 30.56 23.5067 30.48 23.64H31.28L30.92 24.24H31.28L30.88 24.84H30.64C30.5333 24.9733 30.4133 25.1067 30.28 25.24C30.1733 25.3733 30.0533 25.5067 29.92 25.64H29.6C29.5733 25.6667 29.5467 25.6933 29.52 25.72C29.4933 25.7467 29.4533 25.7867 29.4 25.84H27.68L27.48 26.04H35.52C35.36 26.1733 35.2 26.3067 35.04 26.44C34.88 26.5733 34.7067 26.7067 34.52 26.84H34.08C33.8133 27.0267 33.4933 27.2267 33.12 27.44H24.68C24.4133 27.6 24.1333 27.7467 23.84 27.88C23.5467 27.9867 23.2533 28.1067 22.96 28.24H29.56C29.48 28.2667 29.3867 28.2933 29.28 28.32C29.2 28.3467 29.1067 28.3867 29 28.44H27.4C27.2933 28.4667 27.1867 28.4933 27.08 28.52C26.9733 28.5467 26.8667 28.5867 26.76 28.64H23.88C22.92 28.9067 21.9333 29.1067 20.92 29.24H21.56C21.1333 29.2933 20.6933 29.3333 20.24 29.36C19.7867 29.3867 19.3333 29.4 18.88 29.4C18.3733 29.4 17.88 29.3867 17.4 29.36C16.9467 29.3333 16.4933 29.2933 16.04 29.24H15.4C14.3333 29.1067 13.3467 28.9067 12.44 28.64H15.32C15.2133 28.5867 15.1067 28.5467 15 28.52C14.92 28.4933 14.8267 28.4667 14.72 28.44H16.36L15.8 28.24H9.2C8.93333 28.1067 8.65333 27.9867 8.36 27.88C8.09333 27.7467 7.82667 27.6 7.56 27.44H16.04C15.88 27.3333 15.72 27.24 15.56 27.16C15.4 27.0533 15.2533 26.9467 15.12 26.84H15.56C15.24 26.6 14.9333 26.3333 14.64 26.04H6.56C6.53333 25.9867 6.50667 25.9467 6.48 25.92C6.45333 25.8933 6.41333 25.8667 6.36 25.84H8.12C8.09333 25.7867 8.05333 25.7467 8 25.72C7.97333 25.6933 7.94667 25.6667 7.92 25.64H8.24C8 25.3733 7.77333 25.1067 7.56 24.84H7.8L7.44 24.24H7.08L6.72 23.64H5.92L5.56 22.84H6.4L6.32 22.64H5.8C5.77333 22.5333 5.74667 22.44 5.72 22.36C5.69333 22.2533 5.65333 22.1467 5.6 22.04H5.92L5.84 21.84H7.08C7.05333 21.7333 7.02667 21.64 7 21.56C6.97333 21.4533 6.94667 21.3467 6.92 21.24H6.28C6.25333 21.1867 6.24 21.12 6.24 21.04H5.56C5.53333 20.9867 5.52 20.92 5.52 20.84H5.56C5.56 20.7333 5.53333 20.6 5.48 20.44H3.2L3.08 19.64H6.16C6.13333 19.5333 6.12 19.44 6.12 19.36C6.12 19.2533 6.10667 19.1467 6.08 19.04H6.84C6.84 18.96 6.84 18.88 6.84 18.8C6.84 18.72 6.82667 18.64 6.8 18.56V18.24H1.6V18.04H2.76V17.64H7.92V17.44H6.8C6.8 17.3333 6.78667 17.24 6.76 17.16C6.76 17.0533 6.76 16.9467 6.76 16.84H3.68V16.04H4.76V15.84H6.44V15.64H2.32V14.84H0.28V14.44H6.76V14.24H4.84V13.44H5.44V13.04H5.32V12.64H6.76V11.84H3.28V11.64H10.96V11.44C10.9867 11.3333 11 11.24 11 11.16C11 11.0533 11 10.9467 11 10.84H8.88C8.88 10.7067 8.88 10.5733 8.88 10.44C8.90667 10.3067 8.93333 10.1733 8.96 10.04H10.24C10.2667 9.98667 10.28 9.92 10.28 9.84H2C2.02667 9.78667 2.04 9.72 2.04 9.64C2.04 9.56 2.05333 9.49333 2.08 9.44H9.36L9.56 8.64H7.92L8.04 8.24H5.36L5.44 8.04H6.32C6.34667 7.98667 6.37333 7.92 6.4 7.84C6.42667 7.76 6.45333 7.69333 6.48 7.64H6.04L6.2 7.24H6.4C6.45333 7.13333 6.50667 7.04 6.56 6.96C6.61333 6.85333 6.65333 6.74667 6.68 6.64H6.72L7.08 6.04H6.96C7.01333 5.93333 7.06667 5.84 7.12 5.76C7.2 5.65333 7.28 5.54667 7.36 5.44H7.04C7.14667 5.30666 7.25333 5.17333 7.36 5.04C7.46667 4.88 7.57333 4.74667 7.68 4.64H7.32C7.34667 4.58667 7.37333 4.54667 7.4 4.52C7.42667 4.49333 7.45333 4.46667 7.48 4.44H7.08L7.28 4.24H7.2C7.25333 4.18667 7.29333 4.14666 7.32 4.12C7.34667 4.09333 7.37333 4.06667 7.4 4.04H6.68C6.73333 3.98667 6.8 3.92 6.88 3.84C6.96 3.76 7.04 3.69333 7.12 3.64H8.08C8.21333 3.53333 8.34667 3.44 8.48 3.36C8.61333 3.25333 8.74667 3.14666 8.88 3.04H8.44L8.76 2.84H8.08C8.13333 2.78667 8.18667 2.74667 8.24 2.72C8.29333 2.69333 8.34667 2.66666 8.4 2.64H10.48C10.6667 2.53333 10.8533 2.44 11.04 2.36C11.2267 2.25333 11.4133 2.14667 11.6 2.04H11.48C11.64 1.96 11.8 1.89333 11.96 1.84C12.12 1.76 12.28 1.69333 12.44 1.64H13.2C13.28 1.58667 13.36 1.54666 13.44 1.52C13.5467 1.49333 13.6533 1.46667 13.76 1.44H12.56C13.36 1.14667 14.2133 0.946665 15.12 0.839998H16.2C17.24 0.679998 18.3333 0.599998 19.48 0.599998C20.6 0.599998 21.68 0.679998 22.72 0.839998H21.68C22.56 0.946665 23.44 1.14667 24.32 1.44H25.52C25.6267 1.46667 25.72 1.49333 25.8 1.52C25.9067 1.54666 26.0133 1.58667 26.12 1.64H25.36C25.76 1.77333 26.0933 1.90667 26.36 2.04H26.48C26.6933 2.14667 26.8933 2.25333 27.08 2.36C27.2667 2.44 27.4533 2.53333 27.64 2.64H25.6C25.6533 2.66666 25.7067 2.69333 25.76 2.72C25.8133 2.74667 25.8667 2.78667 25.92 2.84H26.6C26.6533 2.86666 26.7067 2.89333 26.76 2.92C26.8133 2.94667 26.8533 2.98667 26.88 3.04H27.32L28.12 3.64H27.12L27.6 4.04H28.32L28.56 4.24H28.6L28.8 4.44H29.2L29.4 4.64H29.76C29.8667 4.74667 29.9733 4.88 30.08 5.04C30.1867 5.17333 30.2933 5.30666 30.4 5.44H30.68C30.76 5.54667 30.8267 5.65333 30.88 5.76C30.96 5.84 31.0267 5.93333 31.08 6.04H31.2C31.2533 6.14667 31.3067 6.25333 31.36 6.36C31.4133 6.44 31.4667 6.53333 31.52 6.64H31.44C31.4933 6.74667 31.5467 6.85333 31.6 6.96C31.6533 7.04 31.6933 7.13333 31.72 7.24H31.52L31.64 7.64H32.08L32.2 8.04H31.32C31.32 8.06667 31.32 8.09333 31.32 8.12C31.3467 8.14667 31.36 8.18667 31.36 8.24H34.04C34.04 8.34666 34.0667 8.48 34.12 8.64H30.48L30.6 9.44H32.92L32.96 9.84H37.8ZM19.44 8.64H22.28C21.8533 8.48 21.3733 8.4 20.84 8.4C20.3067 8.4 19.84 8.48 19.44 8.64ZM26.36 10.56C26.3333 10.4533 26.3067 10.36 26.28 10.28C26.2533 10.2 26.2133 10.12 26.16 10.04H27.12L27 9.84H22.2C22.1733 9.76 22.1333 9.69333 22.08 9.64C22.0267 9.56 21.9733 9.49333 21.92 9.44H12.84C12.8133 9.49333 12.7733 9.56 12.72 9.64C12.6933 9.69333 12.6533 9.76 12.6 9.84H20.88L20.8 10.04H19.52C19.4667 10.1467 19.4267 10.28 19.4 10.44C19.3733 10.5733 19.3467 10.7067 19.32 10.84H26.48L26.36 10.56ZM21.64 19.04H16.52L16.64 19.64H13.56C13.6133 19.8 13.6667 19.9467 13.72 20.08C13.7733 20.1867 13.84 20.3067 13.92 20.44H16.2C16.2533 20.52 16.3067 20.6 16.36 20.68C16.4133 20.7333 16.4667 20.7867 16.52 20.84H16.44L16.64 21.04H17.32C17.3733 21.0667 17.4267 21.1067 17.48 21.16C17.5333 21.1867 17.5867 21.2133 17.64 21.24H18.28C18.7333 21.48 19.28 21.6 19.92 21.6C20.56 21.6 21.0933 21.48 21.52 21.24H20.2L20.52 21.04H20.76L21 20.84H19.96C20.0133 20.7867 20.0667 20.7333 20.12 20.68C20.2 20.6 20.2533 20.52 20.28 20.44H20.72C20.88 20.2 21.0133 19.9333 21.12 19.64H21.4L21.48 19.44C21.5333 19.28 21.5867 19.1467 21.64 19.04ZM60.2159 25.04H58.5759L58.2159 25.44H64.3359C64.3093 25.4667 64.2826 25.4933 64.2559 25.52C64.2293 25.5467 64.1893 25.5867 64.1359 25.64H54.6959C54.5626 25.7733 54.4159 25.9067 54.2559 26.04C54.1226 26.1733 53.9759 26.3067 53.8159 26.44H56.7359L56.2159 26.84H61.6559L61.3359 27.04H58.9759C58.9493 27.0667 58.8959 27.0933 58.8159 27.12C58.7626 27.1467 58.7093 27.1867 58.6559 27.24H55.9759L54.8559 27.84H56.4159C56.0693 28 55.7226 28.1467 55.3759 28.28C55.0293 28.3867 54.6693 28.5067 54.2959 28.64H52.8559C51.9493 28.9067 50.9626 29.1067 49.8959 29.24H50.0959C49.6693 29.2933 49.2293 29.3333 48.7759 29.36C48.3226 29.3867 47.8693 29.4 47.4159 29.4C46.9093 29.4 46.4026 29.3867 45.8959 29.36C45.4159 29.3333 44.9493 29.2933 44.4959 29.24H44.3359C43.1893 29.1067 42.1626 28.9067 41.2559 28.64H42.6959C42.2959 28.5067 41.9226 28.3867 41.5759 28.28C41.2293 28.1467 40.8826 28 40.5359 27.84H38.9759C38.7893 27.7333 38.6026 27.64 38.4159 27.56C38.2293 27.4533 38.0426 27.3467 37.8559 27.24H40.5759L40.2559 27.04H42.6159C42.5893 26.9867 42.5493 26.9467 42.4959 26.92C42.4426 26.8933 42.3893 26.8667 42.3359 26.84H36.8959C36.7893 26.7867 36.6959 26.72 36.6159 26.64C36.5359 26.56 36.4559 26.4933 36.3759 26.44H33.4159C33.2826 26.3067 33.1493 26.1733 33.0159 26.04C32.8559 25.9067 32.7093 25.7733 32.5759 25.64H42.0159C41.9893 25.5867 41.9626 25.5467 41.9359 25.52C41.9093 25.4933 41.8826 25.4667 41.8559 25.44H35.7359C35.6293 25.3333 35.5226 25.2 35.4159 25.04H37.0559C37.0293 24.9867 37.0026 24.9467 36.9759 24.92C36.9493 24.8933 36.9226 24.8667 36.8959 24.84H41.8959L41.5359 24.24H39.0559L38.9359 24.04H33.2959C33.2693 23.9333 33.2293 23.84 33.1759 23.76C33.1226 23.6533 33.0693 23.5467 33.0159 23.44H35.6959L35.4559 22.84H34.4959L34.4159 22.64H34.8559C34.8293 22.5333 34.8026 22.44 34.7759 22.36C34.7493 22.2533 34.7226 22.1467 34.6959 22.04H34.3759C34.3759 21.9333 34.3626 21.84 34.3359 21.76C34.3359 21.6533 34.3226 21.5467 34.2959 21.44H33.9759C33.9759 21.3333 33.9626 21.24 33.9359 21.16C33.9359 21.08 33.9359 20.9867 33.9359 20.88V20.84H33.8959C33.8959 20.7867 33.8959 20.7467 33.8959 20.72C33.9226 20.6933 33.9359 20.6667 33.9359 20.64H34.8559C34.9893 20.2133 35.2693 20 35.6959 20H43.2959C43.7226 20 44.0426 20.0533 44.2559 20.16C44.4693 20.2667 44.7093 20.4267 44.9759 20.64H44.0559L44.0959 20.68C44.1493 20.7067 44.1893 20.7333 44.2159 20.76C44.2693 20.7867 44.3093 20.8133 44.3359 20.84H44.3759C44.7226 21.1067 45.1493 21.3067 45.6559 21.44H46.0159C46.3626 21.5467 46.8293 21.6 47.4159 21.6C47.7626 21.6 48.0826 21.5867 48.3759 21.56C48.6693 21.5333 48.9226 21.4933 49.1359 21.44H49.0159C49.6293 21.3067 50.0159 21.1067 50.1759 20.84H50.0959C50.1493 20.7333 50.1759 20.6667 50.1759 20.64H50.5759L50.6159 20.48C50.6159 20.24 50.5226 20.0267 50.3359 19.84H50.0159C49.7759 19.6 49.3493 19.4 48.7359 19.24H48.6159C48.3759 19.16 48.0959 19.0933 47.7759 19.04C47.4559 18.96 47.0826 18.8933 46.6559 18.84H46.4159L44.7759 18.6C44.5893 18.5733 44.4026 18.5467 44.2159 18.52C44.0559 18.4933 43.8826 18.4667 43.6959 18.44C42.6026 18.2533 41.5493 17.9867 40.5359 17.64H39.8159C39.4426 17.5067 39.0959 17.3733 38.7759 17.24H38.2159C38.0826 17.1867 37.9493 17.1333 37.8159 17.08C37.6826 17 37.5493 16.92 37.4159 16.84H33.9359C33.7493 16.7333 33.5759 16.64 33.4159 16.56C33.2559 16.4533 33.0959 16.3467 32.9359 16.24H40.3759C40.2426 16.1333 40.1093 16.04 39.9759 15.96C39.8693 15.8533 39.7493 15.7467 39.6159 15.64H31.6559C31.5759 15.5867 31.5093 15.52 31.4559 15.44C31.3759 15.36 31.3093 15.2933 31.2559 15.24H33.3359C33.0959 14.9733 32.8693 14.7067 32.6559 14.44H33.2559L33.0159 14.04H29.1759C29.1493 13.9867 29.1226 13.9467 29.0959 13.92C29.0693 13.8933 29.0559 13.8667 29.0559 13.84H38.1759C38.1226 13.7333 38.0693 13.64 38.0159 13.56C37.9626 13.4533 37.9093 13.3467 37.8559 13.24H30.8559L30.6159 12.64H36.2559L36.1759 12.44H34.4959L34.4159 12.24H35.2159C35.2159 12.1867 35.2026 12.1467 35.1759 12.12C35.1759 12.0933 35.1759 12.0667 35.1759 12.04H35.0159L34.8959 11.64H34.6559L34.6159 11.24H34.5359V11.04H33.2559C33.2293 10.9867 33.2159 10.92 33.2159 10.84C33.2159 10.76 33.2159 10.6933 33.2159 10.64H32.0559L32.0159 10.24H36.5759C36.5493 10.1867 36.5359 10.12 36.5359 10.04C36.5359 9.96 36.5359 9.89333 36.5359 9.84H37.1759V9.8C37.1759 9.66667 37.1759 9.53333 37.1759 9.4C37.1759 9.26667 37.1893 9.14667 37.2159 9.04H35.4959C35.5226 8.93333 35.5359 8.84 35.5359 8.76C35.5359 8.65333 35.5493 8.54667 35.5759 8.44H38.3759C38.3759 8.38667 38.3759 8.34667 38.3759 8.32C38.4026 8.29333 38.4159 8.26667 38.4159 8.24H35.5759C35.6293 8.08 35.6559 7.94667 35.6559 7.84H35.2159L35.3359 7.44H34.6559C34.7359 7.14667 34.8293 6.88 34.9359 6.64H35.2559L35.4159 6.24H35.8559L36.2159 5.64H35.8159C35.8959 5.53333 35.9626 5.44 36.0159 5.36C36.0959 5.25333 36.1626 5.14667 36.2159 5.04H35.8959L36.3759 4.44H37.2159C37.2426 4.38666 37.2693 4.34666 37.2959 4.32C37.3226 4.29333 37.3493 4.26667 37.3759 4.24H36.2559C36.3626 4.13333 36.4693 4.04 36.5759 3.96C36.6826 3.85333 36.7893 3.74667 36.8959 3.64H37.5359C37.6959 3.50667 37.8559 3.37333 38.0159 3.24C38.1759 3.08 38.3493 2.94667 38.5359 2.84H39.2559C39.4159 2.73333 39.5759 2.64 39.7359 2.56C39.8959 2.45333 40.0693 2.34667 40.2559 2.24H40.1359C40.1893 2.18667 40.2559 2.14667 40.3359 2.12C40.4159 2.09333 40.4826 2.06667 40.5359 2.04H39.9759C40.0293 1.98666 40.0959 1.94666 40.1759 1.92C40.2559 1.89333 40.3359 1.86667 40.4159 1.84H40.0159C40.3893 1.68 40.7759 1.53333 41.1759 1.4C41.6026 1.26666 42.0293 1.14666 42.4559 1.04H43.0559C43.6693 0.906664 44.3093 0.799998 44.9759 0.719999C45.6693 0.639999 46.3893 0.599998 47.1359 0.599998C48.5493 0.599998 49.8826 0.746665 51.1359 1.04H50.5759C51.4293 1.22667 52.2559 1.49333 53.0559 1.84H53.4159C53.4959 1.86667 53.5759 1.89333 53.6559 1.92C53.7359 1.94666 53.8159 1.98666 53.8959 2.04H54.4559C54.5093 2.06667 54.5759 2.09333 54.6559 2.12C54.7359 2.14667 54.8026 2.18667 54.8559 2.24H54.9759C55.1626 2.34667 55.3359 2.45333 55.4959 2.56C55.6826 2.64 55.8559 2.73333 56.0159 2.84H55.3359C55.5493 2.94667 55.7359 3.08 55.8959 3.24C56.0826 3.37333 56.2559 3.50667 56.4159 3.64H55.8159L56.4559 4.24H57.5759L57.7759 4.44H56.9359C57.0426 4.54667 57.1359 4.65333 57.2159 4.76C57.3226 4.84 57.4159 4.93333 57.4959 5.04H57.8159L58.2959 5.64H58.6559L59.0159 6.24H58.5759C58.6559 6.37333 58.7226 6.50667 58.7759 6.64H58.4559C58.5359 6.77333 58.6026 6.90667 58.6559 7.04C58.7093 7.17333 58.7626 7.30667 58.8159 7.44H59.4959C59.5493 7.6 59.5759 7.73333 59.5759 7.84H60.0559C60.0826 7.89333 60.0959 7.96 60.0959 8.04C60.0959 8.12 60.1093 8.18667 60.1359 8.24H62.9759V8.44H60.4159C60.4426 8.54667 60.4559 8.69333 60.4559 8.88V9.04H58.9759C58.8693 9.52 58.6026 9.76 58.1759 9.76H50.1759C49.8026 9.76 49.4959 9.70667 49.2559 9.6C49.0426 9.49333 48.8159 9.33333 48.5759 9.12L48.4559 9.04H49.9359C49.8026 8.93333 49.6159 8.82667 49.3759 8.72C49.1359 8.58667 48.8293 8.49333 48.4559 8.44H47.0159C46.4559 8.52 46.0693 8.72 45.8559 9.04H47.5759C47.4959 9.2 47.4559 9.36 47.4559 9.52C47.4559 9.65333 47.4693 9.76 47.4959 9.84H46.8959C46.9226 9.97333 47.0293 10.1067 47.2159 10.24H42.6959C42.8559 10.3733 43.1359 10.5067 43.5359 10.64H44.6959C44.9093 10.72 45.1626 10.8 45.4559 10.88C45.7759 10.9333 46.1093 10.9867 46.4559 11.04H47.7359C47.9493 11.0667 48.1759 11.0933 48.4159 11.12C48.6559 11.1467 48.9093 11.1867 49.1759 11.24H49.2159C49.6693 11.2933 50.1093 11.36 50.5359 11.44C50.9626 11.4933 51.3626 11.56 51.7359 11.64H51.9759C52.2959 11.6933 52.5893 11.76 52.8559 11.84C53.1493 11.8933 53.4293 11.96 53.6959 12.04H53.8559C53.9893 12.0667 54.1093 12.0933 54.2159 12.12C54.3226 12.1467 54.4293 12.1867 54.5359 12.24H53.7759C53.8826 12.2667 53.9759 12.2933 54.0559 12.32C54.1626 12.3467 54.2693 12.3867 54.3759 12.44H56.0559C56.1359 12.4667 56.2159 12.4933 56.2959 12.52C56.4026 12.5467 56.4959 12.5867 56.5759 12.64H50.9359C51.4693 12.8533 51.8959 13.0533 52.2159 13.24H59.2159C59.3759 13.3467 59.5359 13.4533 59.6959 13.56C59.8559 13.64 60.0026 13.7333 60.1359 13.84H51.0159C51.0693 13.8667 51.1226 13.8933 51.1759 13.92C51.2293 13.9467 51.2693 13.9867 51.2959 14.04H55.1359C55.2159 14.0933 55.2959 14.16 55.3759 14.24C55.4559 14.32 55.5226 14.3867 55.5759 14.44H54.9759C55.2426 14.68 55.4693 14.9467 55.6559 15.24H53.5759C53.6293 15.2933 53.6826 15.36 53.7359 15.44C53.7893 15.52 53.8293 15.5867 53.8559 15.64H61.7759L62.1359 16.24H54.6959C54.7493 16.3467 54.8026 16.4533 54.8559 16.56C54.9093 16.64 54.9493 16.7333 54.9759 16.84H58.4159L58.5359 17.24H59.0959L59.2159 17.64H59.9359C59.9893 17.7467 60.0159 17.88 60.0159 18.04C60.0426 18.1733 60.0693 18.3067 60.0959 18.44L60.1359 18.84H60.3759C60.4026 18.8933 60.4159 18.96 60.4159 19.04C60.4159 19.12 60.4159 19.1867 60.4159 19.24H60.5359V19.84H60.8959V19.96C60.8959 20.0667 60.8826 20.1733 60.8559 20.28C60.8559 20.3867 60.8559 20.5067 60.8559 20.64H60.4559V20.84H60.5359C60.5359 20.9467 60.5226 21.0533 60.4959 21.16C60.4959 21.24 60.4826 21.3333 60.4559 21.44H60.5759L60.4559 22.04H60.7759C60.7493 22.1467 60.7226 22.2533 60.6959 22.36C60.6693 22.44 60.6293 22.5333 60.5759 22.64H60.1359C60.1359 22.6667 60.1226 22.6933 60.0959 22.72C60.0959 22.7467 60.0959 22.7867 60.0959 22.84H61.0559L60.8159 23.44H58.1359C58.1093 23.5467 58.0559 23.6533 57.9759 23.76C57.9226 23.84 57.8693 23.9333 57.8159 24.04H63.4559L63.3359 24.24H65.7759C65.7226 24.3467 65.6559 24.4533 65.5759 24.56C65.5226 24.64 65.4559 24.7333 65.3759 24.84H60.3759C60.3493 24.8667 60.3226 24.8933 60.2959 24.92C60.2693 24.9467 60.2426 24.9867 60.2159 25.04ZM49.8159 8.44H51.0159C50.9359 8.41333 50.8426 8.4 50.7359 8.4C50.6559 8.4 50.5626 8.4 50.4559 8.4C50.3493 8.4 50.2426 8.4 50.1359 8.4C50.0293 8.4 49.9226 8.41333 49.8159 8.44ZM88.1066 25.04H86.4666L86.1066 25.44H92.2266C92.1999 25.4667 92.1732 25.4933 92.1466 25.52C92.1199 25.5467 92.0799 25.5867 92.0266 25.64H82.5866C82.4532 25.7733 82.3066 25.9067 82.1466 26.04C82.0132 26.1733 81.8666 26.3067 81.7066 26.44H84.6266L84.1066 26.84H89.5466L89.2266 27.04H86.8666C86.8399 27.0667 86.7866 27.0933 86.7066 27.12C86.6532 27.1467 86.5999 27.1867 86.5466 27.24H83.8666L82.7466 27.84H84.3066C83.9599 28 83.6132 28.1467 83.2666 28.28C82.9199 28.3867 82.5599 28.5067 82.1866 28.64H80.7466C79.8399 28.9067 78.8532 29.1067 77.7866 29.24H77.9866C77.5599 29.2933 77.1199 29.3333 76.6666 29.36C76.2132 29.3867 75.7599 29.4 75.3066 29.4C74.7999 29.4 74.2932 29.3867 73.7866 29.36C73.3066 29.3333 72.8399 29.2933 72.3866 29.24H72.2266C71.0799 29.1067 70.0532 28.9067 69.1466 28.64H70.5866C70.1866 28.5067 69.8132 28.3867 69.4666 28.28C69.1199 28.1467 68.7732 28 68.4266 27.84H66.8666C66.6799 27.7333 66.4932 27.64 66.3066 27.56C66.1199 27.4533 65.9332 27.3467 65.7466 27.24H68.4666L68.1466 27.04H70.5066C70.4799 26.9867 70.4399 26.9467 70.3866 26.92C70.3332 26.8933 70.2799 26.8667 70.2266 26.84H64.7866C64.6799 26.7867 64.5866 26.72 64.5066 26.64C64.4266 26.56 64.3466 26.4933 64.2666 26.44H61.3066C61.1732 26.3067 61.0399 26.1733 60.9066 26.04C60.7466 25.9067 60.5999 25.7733 60.4666 25.64H69.9066C69.8799 25.5867 69.8532 25.5467 69.8266 25.52C69.7999 25.4933 69.7732 25.4667 69.7466 25.44H63.6266C63.5199 25.3333 63.4132 25.2 63.3066 25.04H64.9466C64.9199 24.9867 64.8932 24.9467 64.8666 24.92C64.8399 24.8933 64.8132 24.8667 64.7866 24.84H69.7866L69.4266 24.24H66.9466L66.8266 24.04H61.1866C61.1599 23.9333 61.1199 23.84 61.0666 23.76C61.0132 23.6533 60.9599 23.5467 60.9066 23.44H63.5866L63.3466 22.84H62.3866L62.3066 22.64H62.7466C62.7199 22.5333 62.6932 22.44 62.6666 22.36C62.6399 22.2533 62.6132 22.1467 62.5866 22.04H62.2666C62.2666 21.9333 62.2532 21.84 62.2266 21.76C62.2266 21.6533 62.2132 21.5467 62.1866 21.44H61.8666C61.8666 21.3333 61.8532 21.24 61.8266 21.16C61.8266 21.08 61.8266 20.9867 61.8266 20.88V20.84H61.7866C61.7866 20.7867 61.7866 20.7467 61.7866 20.72C61.8132 20.6933 61.8266 20.6667 61.8266 20.64H62.7466C62.8799 20.2133 63.1599 20 63.5866 20H71.1866C71.6132 20 71.9332 20.0533 72.1466 20.16C72.3599 20.2667 72.5999 20.4267 72.8666 20.64H71.9466L71.9866 20.68C72.0399 20.7067 72.0799 20.7333 72.1066 20.76C72.1599 20.7867 72.1999 20.8133 72.2266 20.84H72.2666C72.6132 21.1067 73.0399 21.3067 73.5466 21.44H73.9066C74.2532 21.5467 74.7199 21.6 75.3066 21.6C75.6532 21.6 75.9732 21.5867 76.2666 21.56C76.5599 21.5333 76.8132 21.4933 77.0266 21.44H76.9066C77.5199 21.3067 77.9066 21.1067 78.0666 20.84H77.9866C78.0399 20.7333 78.0666 20.6667 78.0666 20.64H78.4666L78.5066 20.48C78.5066 20.24 78.4132 20.0267 78.2266 19.84H77.9066C77.6666 19.6 77.2399 19.4 76.6266 19.24H76.5066C76.2666 19.16 75.9866 19.0933 75.6666 19.04C75.3466 18.96 74.9732 18.8933 74.5466 18.84H74.3066L72.6666 18.6C72.4799 18.5733 72.2932 18.5467 72.1066 18.52C71.9466 18.4933 71.7732 18.4667 71.5866 18.44C70.4932 18.2533 69.4399 17.9867 68.4266 17.64H67.7066C67.3332 17.5067 66.9866 17.3733 66.6666 17.24H66.1066C65.9732 17.1867 65.8399 17.1333 65.7066 17.08C65.5732 17 65.4399 16.92 65.3066 16.84H61.8266C61.6399 16.7333 61.4666 16.64 61.3066 16.56C61.1466 16.4533 60.9866 16.3467 60.8266 16.24H68.2666C68.1332 16.1333 67.9999 16.04 67.8666 15.96C67.7599 15.8533 67.6399 15.7467 67.5066 15.64H59.5466C59.4666 15.5867 59.3999 15.52 59.3466 15.44C59.2666 15.36 59.1999 15.2933 59.1466 15.24H61.2266C60.9866 14.9733 60.7599 14.7067 60.5466 14.44H61.1466L60.9066 14.04H57.0666C57.0399 13.9867 57.0132 13.9467 56.9866 13.92C56.9599 13.8933 56.9466 13.8667 56.9466 13.84H66.0666C66.0132 13.7333 65.9599 13.64 65.9066 13.56C65.8532 13.4533 65.7999 13.3467 65.7466 13.24H58.7466L58.5066 12.64H64.1466L64.0666 12.44H62.3866L62.3066 12.24H63.1066C63.1066 12.1867 63.0932 12.1467 63.0666 12.12C63.0666 12.0933 63.0666 12.0667 63.0666 12.04H62.9066L62.7866 11.64H62.5466L62.5066 11.24H62.4266V11.04H61.1466C61.1199 10.9867 61.1066 10.92 61.1066 10.84C61.1066 10.76 61.1066 10.6933 61.1066 10.64H59.9466L59.9066 10.24H64.4666C64.4399 10.1867 64.4266 10.12 64.4266 10.04C64.4266 9.96 64.4266 9.89333 64.4266 9.84H65.0666V9.8C65.0666 9.66667 65.0666 9.53333 65.0666 9.4C65.0666 9.26667 65.0799 9.14667 65.1066 9.04H63.3866C63.4132 8.93333 63.4266 8.84 63.4266 8.76C63.4266 8.65333 63.4399 8.54667 63.4666 8.44H66.2666C66.2666 8.38667 66.2666 8.34667 66.2666 8.32C66.2932 8.29333 66.3066 8.26667 66.3066 8.24H63.4666C63.5199 8.08 63.5466 7.94667 63.5466 7.84H63.1066L63.2266 7.44H62.5466C62.6266 7.14667 62.7199 6.88 62.8266 6.64H63.1466L63.3066 6.24H63.7466L64.1066 5.64H63.7066C63.7866 5.53333 63.8532 5.44 63.9066 5.36C63.9866 5.25333 64.0532 5.14667 64.1066 5.04H63.7866L64.2666 4.44H65.1066C65.1332 4.38666 65.1599 4.34666 65.1866 4.32C65.2132 4.29333 65.2399 4.26667 65.2666 4.24H64.1466C64.2532 4.13333 64.3599 4.04 64.4666 3.96C64.5732 3.85333 64.6799 3.74667 64.7866 3.64H65.4266C65.5866 3.50667 65.7466 3.37333 65.9066 3.24C66.0666 3.08 66.2399 2.94667 66.4266 2.84H67.1466C67.3066 2.73333 67.4666 2.64 67.6266 2.56C67.7866 2.45333 67.9599 2.34667 68.1466 2.24H68.0266C68.0799 2.18667 68.1466 2.14667 68.2266 2.12C68.3066 2.09333 68.3732 2.06667 68.4266 2.04H67.8666C67.9199 1.98666 67.9866 1.94666 68.0666 1.92C68.1466 1.89333 68.2266 1.86667 68.3066 1.84H67.9066C68.2799 1.68 68.6666 1.53333 69.0666 1.4C69.4932 1.26666 69.9199 1.14666 70.3466 1.04H70.9466C71.5599 0.906664 72.1999 0.799998 72.8666 0.719999C73.5599 0.639999 74.2799 0.599998 75.0266 0.599998C76.4399 0.599998 77.7732 0.746665 79.0266 1.04H78.4666C79.3199 1.22667 80.1466 1.49333 80.9466 1.84H81.3066C81.3866 1.86667 81.4666 1.89333 81.5466 1.92C81.6266 1.94666 81.7066 1.98666 81.7866 2.04H82.3466C82.3999 2.06667 82.4666 2.09333 82.5466 2.12C82.6266 2.14667 82.6932 2.18667 82.7466 2.24H82.8666C83.0532 2.34667 83.2266 2.45333 83.3866 2.56C83.5732 2.64 83.7466 2.73333 83.9066 2.84H83.2266C83.4399 2.94667 83.6266 3.08 83.7866 3.24C83.9732 3.37333 84.1466 3.50667 84.3066 3.64H83.7066L84.3466 4.24H85.4666L85.6666 4.44H84.8266C84.9332 4.54667 85.0266 4.65333 85.1066 4.76C85.2132 4.84 85.3066 4.93333 85.3866 5.04H85.7066L86.1866 5.64H86.5466L86.9066 6.24H86.4666C86.5466 6.37333 86.6132 6.50667 86.6666 6.64H86.3466C86.4266 6.77333 86.4932 6.90667 86.5466 7.04C86.5999 7.17333 86.6532 7.30667 86.7066 7.44H87.3866C87.4399 7.6 87.4666 7.73333 87.4666 7.84H87.9466C87.9732 7.89333 87.9866 7.96 87.9866 8.04C87.9866 8.12 87.9999 8.18667 88.0266 8.24H90.8666V8.44H88.3066C88.3332 8.54667 88.3466 8.69333 88.3466 8.88V9.04H86.8666C86.7599 9.52 86.4932 9.76 86.0666 9.76H78.0666C77.6932 9.76 77.3866 9.70667 77.1466 9.6C76.9332 9.49333 76.7066 9.33333 76.4666 9.12L76.3466 9.04H77.8266C77.6932 8.93333 77.5066 8.82667 77.2666 8.72C77.0266 8.58667 76.7199 8.49333 76.3466 8.44H74.9066C74.3466 8.52 73.9599 8.72 73.7466 9.04H75.4666C75.3866 9.2 75.3466 9.36 75.3466 9.52C75.3466 9.65333 75.3599 9.76 75.3866 9.84H74.7866C74.8132 9.97333 74.9199 10.1067 75.1066 10.24H70.5866C70.7466 10.3733 71.0266 10.5067 71.4266 10.64H72.5866C72.7999 10.72 73.0532 10.8 73.3466 10.88C73.6666 10.9333 73.9999 10.9867 74.3466 11.04H75.6266C75.8399 11.0667 76.0666 11.0933 76.3066 11.12C76.5466 11.1467 76.7999 11.1867 77.0666 11.24H77.1066C77.5599 11.2933 77.9999 11.36 78.4266 11.44C78.8532 11.4933 79.2532 11.56 79.6266 11.64H79.8666C80.1866 11.6933 80.4799 11.76 80.7466 11.84C81.0399 11.8933 81.3199 11.96 81.5866 12.04H81.7466C81.8799 12.0667 81.9999 12.0933 82.1066 12.12C82.2132 12.1467 82.3199 12.1867 82.4266 12.24H81.6666C81.7732 12.2667 81.8666 12.2933 81.9466 12.32C82.0532 12.3467 82.1599 12.3867 82.2666 12.44H83.9466C84.0266 12.4667 84.1066 12.4933 84.1866 12.52C84.2932 12.5467 84.3866 12.5867 84.4666 12.64H78.8266C79.3599 12.8533 79.7866 13.0533 80.1066 13.24H87.1066C87.2666 13.3467 87.4266 13.4533 87.5866 13.56C87.7466 13.64 87.8932 13.7333 88.0266 13.84H78.9066C78.9599 13.8667 79.0132 13.8933 79.0666 13.92C79.1199 13.9467 79.1599 13.9867 79.1866 14.04H83.0266C83.1066 14.0933 83.1866 14.16 83.2666 14.24C83.3466 14.32 83.4132 14.3867 83.4666 14.44H82.8666C83.1332 14.68 83.3599 14.9467 83.5466 15.24H81.4666C81.5199 15.2933 81.5732 15.36 81.6266 15.44C81.6799 15.52 81.7199 15.5867 81.7466 15.64H89.6666L90.0266 16.24H82.5866C82.6399 16.3467 82.6932 16.4533 82.7466 16.56C82.7999 16.64 82.8399 16.7333 82.8666 16.84H86.3066L86.4266 17.24H86.9866L87.1066 17.64H87.8266C87.8799 17.7467 87.9066 17.88 87.9066 18.04C87.9332 18.1733 87.9599 18.3067 87.9866 18.44L88.0266 18.84H88.2666C88.2932 18.8933 88.3066 18.96 88.3066 19.04C88.3066 19.12 88.3066 19.1867 88.3066 19.24H88.4266V19.84H88.7866V19.96C88.7866 20.0667 88.7732 20.1733 88.7466 20.28C88.7466 20.3867 88.7466 20.5067 88.7466 20.64H88.3466V20.84H88.4266C88.4266 20.9467 88.4132 21.0533 88.3866 21.16C88.3866 21.24 88.3732 21.3333 88.3466 21.44H88.4666L88.3466 22.04H88.6666C88.6399 22.1467 88.6132 22.2533 88.5866 22.36C88.5599 22.44 88.5199 22.5333 88.4666 22.64H88.0266C88.0266 22.6667 88.0132 22.6933 87.9866 22.72C87.9866 22.7467 87.9866 22.7867 87.9866 22.84H88.9466L88.7066 23.44H86.0266C85.9999 23.5467 85.9466 23.6533 85.8666 23.76C85.8132 23.84 85.7599 23.9333 85.7066 24.04H91.3466L91.2266 24.24H93.6666C93.6132 24.3467 93.5466 24.4533 93.4666 24.56C93.4132 24.64 93.3466 24.7333 93.2666 24.84H88.2666C88.2399 24.8667 88.2132 24.8933 88.1866 24.92C88.1599 24.9467 88.1332 24.9867 88.1066 25.04ZM77.7066 8.44H78.9066C78.8266 8.41333 78.7332 8.4 78.6266 8.4C78.5466 8.4 78.4532 8.4 78.3466 8.4C78.2399 8.4 78.1332 8.4 78.0266 8.4C77.9199 8.4 77.8132 8.41333 77.7066 8.44ZM31.72 46.24H36.96V47.04H35.4V47.84H33.16V48.4C33.16 48.5067 33.1467 48.6133 33.12 48.72C33.12 48.8267 33.12 48.9333 33.12 49.04H33.24C33.24 49.1467 33.2267 49.2533 33.2 49.36C33.2 49.44 33.2 49.5333 33.2 49.64H32.84C32.84 49.6933 32.84 49.76 32.84 49.84C32.84 49.92 32.8267 49.9867 32.8 50.04H29.12C29.0933 50.0933 29.08 50.16 29.08 50.24C29.08 50.32 29.0667 50.3867 29.04 50.44H29.08L28.96 51.04H31.84C31.8133 51.1467 31.7867 51.2533 31.76 51.36C31.7333 51.44 31.7067 51.5333 31.68 51.64H32.12C32.0933 51.7733 32.0533 51.9067 32 52.04C31.9467 52.1733 31.8933 52.3067 31.84 52.44H32.36L32.2 52.84H31.6C31.5467 52.9733 31.48 53.1067 31.4 53.24C31.3467 53.3733 31.28 53.5067 31.2 53.64H32.8L32.56 54.04H32.88C32.8267 54.0933 32.7733 54.16 32.72 54.24C32.6933 54.32 32.6533 54.3867 32.6 54.44H30.32C30.2933 54.4667 30.2667 54.4933 30.24 54.52C30.2133 54.5467 30.1867 54.5867 30.16 54.64H32.76C32.6533 54.8 32.5467 54.9333 32.44 55.04H31.8C31.72 55.1467 31.6267 55.2533 31.52 55.36C31.44 55.44 31.3467 55.5333 31.24 55.64H32.64L32 56.24H31.56L31.32 56.44H30.12C29.88 56.6267 29.6 56.8267 29.28 57.04H29.04C28.88 57.1467 28.7067 57.2533 28.52 57.36C28.36 57.44 28.1867 57.5333 28 57.64H27.24L26.8 57.84H25.76C25.2533 58.08 24.76 58.28 24.28 58.44H23.28C22.56 58.68 21.8 58.88 21 59.04H20.24C20.0267 59.0667 19.8 59.0933 19.56 59.12C19.3467 59.1733 19.1333 59.2133 18.92 59.24H20C19.5733 59.2933 19.12 59.3333 18.64 59.36C18.1867 59.3867 17.72 59.4 17.24 59.4C16.7333 59.4 16.24 59.3867 15.76 59.36C15.3067 59.3333 14.8533 59.2933 14.4 59.24H13.36C13.12 59.2133 12.8933 59.1733 12.68 59.12C12.4667 59.0933 12.2533 59.0667 12.04 59.04H12.8C12 58.88 11.24 58.68 10.52 58.44H11.52C11.04 58.28 10.56 58.08 10.08 57.84H11.16C11.08 57.7867 11 57.7467 10.92 57.72C10.8667 57.6933 10.8133 57.6667 10.76 57.64H11.56C11.3733 57.5333 11.2 57.44 11.04 57.36C10.88 57.2533 10.72 57.1467 10.56 57.04H10.84L10.04 56.44H11.24L11 56.24H11.44L10.84 55.64H9.48C9.37333 55.5333 9.28 55.44 9.2 55.36C9.12 55.2533 9.04 55.1467 8.96 55.04H9.6C9.57333 54.9867 9.53333 54.92 9.48 54.84C9.42667 54.76 9.37333 54.6933 9.32 54.64H6.72L6.6 54.44H8.88L8.64 54.04H8.36L8.12 53.64H6.52L6.16 52.84H6.76C6.73333 52.7867 6.70667 52.72 6.68 52.64C6.65333 52.56 6.62667 52.4933 6.6 52.44H6.08C6.02667 52.3067 5.97333 52.1733 5.92 52.04C5.89333 51.9067 5.85333 51.7733 5.8 51.64H5.36C5.33333 51.5333 5.30667 51.44 5.28 51.36C5.25333 51.2533 5.22667 51.1467 5.2 51.04H4.88C4.85333 50.9333 4.82667 50.84 4.8 50.76C4.77333 50.6533 4.74667 50.5467 4.72 50.44H2.48C2.45333 50.3867 2.44 50.32 2.44 50.24C2.44 50.16 2.42667 50.0933 2.4 50.04H6.08C6.08 49.9867 6.08 49.92 6.08 49.84C6.08 49.76 6.06667 49.6933 6.04 49.64H5.6C5.57333 49.5333 5.54667 49.44 5.52 49.36C5.52 49.2533 5.52 49.1467 5.52 49.04H7.12C7.12 48.9333 7.12 48.84 7.12 48.76C7.12 48.6533 7.10667 48.5467 7.08 48.44H8.6V47.84H4.08V47.04H7.44C7.41333 46.9067 7.4 46.7733 7.4 46.64C7.4 46.5067 7.4 46.3733 7.4 46.24H7.92V45.84H4.6V45.44H4.96V44.84H6.04V44.44H5.48V44.24H5.28V43.44H5.32V42.64H5.44V42.44H5.56V42.24H4.8V42.04H5.64V41.84H5.44C5.46667 41.7333 5.48 41.64 5.48 41.56C5.48 41.4533 5.48 41.3467 5.48 41.24H5.8V41.04H5.16C5.16 40.9067 5.16 40.7733 5.16 40.64C5.18667 40.5067 5.2 40.3733 5.2 40.24H5.48C5.50667 40.1867 5.52 40.12 5.52 40.04C5.52 39.96 5.53333 39.8933 5.56 39.84H5.76L5.88 39.24H4.52L4.64 38.64H5.84C5.89333 38.5067 5.93333 38.3733 5.96 38.24C5.98667 38.08 6.02667 37.9467 6.08 37.84H6.56L6.64 37.64H6.36C6.38667 37.5333 6.41333 37.44 6.44 37.36C6.49333 37.2533 6.53333 37.1467 6.56 37.04H6.52C6.57333 36.9333 6.61333 36.84 6.64 36.76C6.69333 36.6533 6.74667 36.5467 6.8 36.44H6.68L7.04 35.84H7.36L7.48 35.64H7.12L7.56 35.04H9.96C10.04 34.96 10.0933 34.8933 10.12 34.84H7.88L8.24 34.44H8.04L8.64 33.84C8.8 33.7067 8.96 33.5733 9.12 33.44C9.28 33.28 9.45333 33.1467 9.64 33.04H9.68C9.89333 32.9067 10.1067 32.7733 10.32 32.64C10.5333 32.48 10.76 32.3467 11 32.24C11.1333 32.16 11.2667 32.0933 11.4 32.04C11.56 31.96 11.7067 31.8933 11.84 31.84H11.92C12.48 31.6 13.08 31.4 13.72 31.24H13.68C14.48 31.0267 15.32 30.8667 16.2 30.76C17.1067 30.6533 18.04 30.6 19 30.6C20.0133 30.6 20.96 30.6533 21.84 30.76C22.7467 30.8667 23.6133 31.0267 24.44 31.24C25.1067 31.4 25.7333 31.6 26.32 31.84H26.24C26.4 31.8933 26.56 31.96 26.72 32.04C26.88 32.0933 27.04 32.16 27.2 32.24C27.4667 32.3467 27.72 32.48 27.96 32.64C28.2 32.7733 28.44 32.9067 28.68 33.04H28.64C28.8533 33.1467 29.04 33.28 29.2 33.44C29.3867 33.5733 29.5733 33.7067 29.76 33.84H29.72C29.8533 33.9467 29.9733 34.0533 30.08 34.16C30.1867 34.24 30.2933 34.3333 30.4 34.44H30.6L30.96 34.84H33.2L33.4 35.04H30.96C31.0667 35.1467 31.1467 35.2533 31.2 35.36C31.28 35.44 31.36 35.5333 31.44 35.64H31.8L31.92 35.84H31.6C31.6533 35.9467 31.7067 36.0533 31.76 36.16C31.84 36.24 31.8933 36.3333 31.92 36.44H32.04C32.0933 36.5467 32.1467 36.6533 32.2 36.76C32.2533 36.84 32.2933 36.9333 32.32 37.04H32.4C32.4533 37.1467 32.4933 37.2533 32.52 37.36C32.5467 37.44 32.5733 37.5333 32.6 37.64H32.92C32.92 37.6667 32.92 37.6933 32.92 37.72C32.9467 37.7467 32.96 37.7867 32.96 37.84H32.48C32.5333 37.9733 32.56 38.1067 32.56 38.24C32.5867 38.3733 32.6133 38.5067 32.64 38.64H32.72C32.72 38.7467 32.72 38.8533 32.72 38.96C32.7467 39.04 32.76 39.1333 32.76 39.24H33.4C33.4267 39.2933 33.44 39.3867 33.44 39.52C33.44 39.6267 33.4133 39.7333 33.36 39.84H32.68C32.6267 40.0267 32.52 40.16 32.36 40.24H32.64C32.5067 40.3467 32.3333 40.4 32.12 40.4H23.28C22.9333 40.4 22.6667 40.3467 22.48 40.24H22.2C22.04 40.1333 21.9333 40.04 21.88 39.96L21.76 39.84H22.48C22.4267 39.76 22.36 39.6667 22.28 39.56C22.2 39.4533 22.0933 39.3467 21.96 39.24H21.32C21.0533 38.9733 20.7467 38.7733 20.4 38.64H20.32C19.9733 38.48 19.52 38.4 18.96 38.4C18.4 38.4 17.92 38.48 17.52 38.64H16.32C15.9733 38.7467 15.68 38.9467 15.44 39.24H16.8C16.6667 39.3733 16.5333 39.5733 16.4 39.84H16.16C16.1333 39.8933 16.1067 39.96 16.08 40.04C16.0533 40.0933 16.0267 40.16 16 40.24H15.72C15.6933 40.3467 15.6667 40.48 15.64 40.64C15.6133 40.7733 15.5867 40.9067 15.56 41.04H16.24C16.2133 41.0933 16.2 41.16 16.2 41.24H15.88V41.84H16.04V42.04H15.2V42.24H15.96V42.44H15.84V42.64H15.72V43.44H15.68V44.24H15.88V44.44H16.44V44.84H15.36V45.44H15V45.84H18.32V46.24H17.8C17.8 46.3733 17.8 46.5067 17.8 46.64C17.8267 46.7733 17.84 46.9067 17.84 47.04H14.48V47.84H19V48.44H17.52C17.52 48.5467 17.52 48.6533 17.52 48.76C17.5467 48.84 17.56 48.9333 17.56 49.04H15.96C15.9867 49.1467 16.0133 49.2533 16.04 49.36C16.0667 49.44 16.0933 49.5333 16.12 49.64H16.56C16.5867 49.72 16.6133 49.8 16.64 49.88C16.6667 49.9333 16.6933 49.9867 16.72 50.04H13.04C13.0667 50.1733 13.1467 50.3067 13.28 50.44H15.52C15.68 50.68 15.88 50.88 16.12 51.04H16.48C16.96 51.4133 17.64 51.6 18.52 51.6C18.9733 51.6 19.4 51.56 19.8 51.48C20.2 51.3733 20.5333 51.2267 20.8 51.04H17.96C18.1733 50.9067 18.3867 50.7067 18.6 50.44H18.56C18.6667 50.28 18.7333 50.1467 18.76 50.04H22.48L22.6 49.64H22.96C22.9867 49.5333 23 49.44 23 49.36C23.0267 49.2533 23.04 49.1467 23.04 49.04H22.92L22.96 48.76V48.72H21.08C20.8133 48.72 20.56 48.6267 20.32 48.44C20.1333 48.2533 20.0267 48.0533 20 47.84H22.28C22.2533 47.7867 22.24 47.72 22.24 47.64V47.04H23.8V46.24H18.56V45.84H20.68V45.44H19.2V44.84H19.6V44.44H19.88V44.24H19.56V43.44H19.68V43.2C19.68 42.96 19.7333 42.7733 19.84 42.64H19.68C19.7067 42.5867 19.76 42.52 19.84 42.44H20.08C20.1867 42.3333 20.2667 42.2667 20.32 42.24H19.6C19.7333 42.16 19.8933 42.12 20.08 42.12H31.08C31.2933 42.12 31.4533 42.16 31.56 42.24H32.32C32.4 42.2667 32.4933 42.3333 32.6 42.44H32.36C32.44 42.52 32.4933 42.5867 32.52 42.64H32.68C32.7867 42.7733 32.84 42.96 32.84 43.2V43.44H32.72V44.24H33.04V44.44H32.76V44.84H32.36V45.44H33.84V45.84H31.72V46.24ZM61.5972 52.04H64.7572V52.64H58.6772V53.44H62.5972V54.24H59.1572V55.04H59.5972V55.64H59.3172V56.04H58.4772V56.44H58.4372V56.84H59.2772V57.64H60.4372V57.92C60.4372 57.9733 60.4239 58.0133 60.3972 58.04H53.2772C53.2505 58.0933 53.2372 58.16 53.2372 58.24H55.9972C55.9172 58.5067 55.7705 58.7067 55.5572 58.84H54.7972C54.6639 58.9467 54.4772 59 54.2372 59H33.3972C33.1839 59 32.9839 58.9467 32.7972 58.84H33.5572C33.3705 58.7067 33.2239 58.5067 33.1172 58.24H30.3172C30.2905 58.1867 30.2772 58.12 30.2772 58.04H37.4372V57.64H36.2772V56.84H35.4372V56.44H35.4772V56.04H36.3172V55.64H36.5972V55.04H36.1572V54.24H39.5972V53.44H35.6772V52.64H41.7572V52.04H38.5972V51.64H39.5172V51.24H39.9172V50.84H35.4772V50.44H34.4372V49.84H38.1572V49.64H35.1972V49.24H36.0772V48.84H36.7172V48.24H36.6372V47.44H36.2372V46.64H35.6372V46.24H36.1172V45.44H35.6772V45.04H36.3172V44.44H36.4772V43.84H37.1972V43.64H36.5172V42.84H35.9172V42.24H36.0772V41.64H36.1572V40.84H36.7572V40.04H35.8772V39.24H35.9972V38.44H37.1172V37.84H36.5172V37.24H36.1972V37.04H37.8772V36.44H40.8372V36.04H39.6372V35.64H35.7572V35.44H36.1972V34.84H36.2372V34.24H36.3572V33.44H36.3172V32.44H36.2372V32.08C36.2372 31.9733 36.2505 31.8933 36.2772 31.84H35.8772C35.9839 31.28 36.3305 31 36.9172 31H57.4372C58.0505 31 58.3972 31.28 58.4772 31.84H58.8772C58.9039 31.8933 58.9172 31.9733 58.9172 32.08V32.44H58.9972V33.44H59.0372V34.24H58.9172V34.84H58.8772V35.44H58.4372V35.64H62.3172V36.04H63.5172V36.44H60.5572V37.04H58.8772V37.24H59.1972V37.84H59.7972C59.7439 38.1067 59.6505 38.3067 59.5172 38.44H58.3972C58.2105 38.68 57.9439 38.8 57.5972 38.8H45.5972V39.24H45.4772V40.04H46.3572V40.84H45.7572V41.32H56.8772C57.1705 41.32 57.4239 41.4267 57.6372 41.64H57.5572C57.6905 41.7733 57.7839 41.9733 57.8372 42.24H57.7172V42.84H58.3172V43.64H58.9972V43.84H58.2772V44.44H58.1172V45.04H57.4772V45.44H57.9172V46.24H57.4372V46.64H58.0372V47.44H58.4372V47.6C58.4372 47.8933 58.3705 48.1067 58.2372 48.24H58.3172C58.1039 48.5333 57.8105 48.68 57.4372 48.68H46.3172V48.84H45.6772V49.24H44.7972V49.64H47.7572V49.84H44.0372V50.44H45.0772V50.84H49.5172V51.2H61.8372C61.9705 51.2 62.0772 51.2133 62.1572 51.24H61.7172C61.9839 51.32 62.1839 51.4533 62.3172 51.64H61.3972C61.5039 51.8 61.5705 51.9333 61.5972 52.04ZM91.9569 56.84H92.1569V57.24H91.1169V58.04H88.4769C88.4769 58.1467 88.4502 58.2533 88.3969 58.36C88.3435 58.4667 88.2902 58.56 88.2369 58.64H86.8769C86.7702 58.7467 86.6902 58.8133 86.6369 58.84H88.2369C88.1035 58.9467 87.9169 59 87.6769 59H81.3569C81.1969 59 81.0502 58.9867 80.9169 58.96C80.7835 58.9067 80.6635 58.8667 80.5569 58.84H78.9169C78.8102 58.7867 78.7035 58.72 78.5969 58.64H79.9569C79.8235 58.5333 79.7169 58.4267 79.6369 58.32C79.5569 58.2133 79.4902 58.1333 79.4369 58.08V58.04H82.0369L81.5169 57.24H82.5569L82.2769 56.84H82.0769L81.6769 56.24H77.0769L76.5169 55.44H77.1169L76.5969 54.64H75.1969L75.0369 54.44H76.8769L76.4769 53.84H77.3169L76.9169 53.24H75.2769L74.7569 52.44H77.2769L77.1569 52.24H75.8369L75.5969 51.84H74.3569L73.8369 51.04H73.1569L73.0369 50.84H74.8769L74.4769 50.24H72.3969V50.84H70.3969V51.04H73.1169V51.84H73.5169V52.24H73.5569V52.44H72.3969V53.24H70.5169V53.84H72.7169V54.44H72.3169V54.64H71.8369V55.44H72.7169V56.24H73.0769V56.84H71.4369V57.24H72.8369V58.04H71.0769C71.0769 58.1467 71.0502 58.2533 70.9969 58.36C70.9435 58.4667 70.8902 58.56 70.8369 58.64H72.1169C72.0102 58.7467 71.9302 58.8133 71.8769 58.84H70.6369C70.5035 58.9467 70.3169 59 70.0769 59H62.8369C62.5702 59 62.3702 58.9467 62.2369 58.84H63.5169C63.4635 58.8133 63.3835 58.7467 63.2769 58.64H61.9569C61.9035 58.56 61.8502 58.4667 61.7969 58.36C61.7435 58.2533 61.7169 58.1467 61.7169 58.04H63.4369V57.24H62.0369V56.84H63.6769V56.24H63.3169V55.44H62.4369V54.64H62.9169V54.44H63.3169V53.84H61.1169V53.24H62.9969V52.44H64.1569V52.24H64.1169V51.84H63.7169V51.04H60.9969V50.84H62.9969V50.24H64.9169V50.04H62.7969V49.84H63.5969V49.04H62.9569V48.24H62.9969V48.04H62.6769V47.84H62.7169V47.24H61.1969V47.04H62.2369V46.64H59.8769V45.84H63.8369V45.44H61.3169V44.64H62.7569V44.44H62.9969V43.84H63.7169V43.44H64.0769V42.84H63.0369V42.64H62.6369V42.24H62.2369V41.44H62.9969V40.84H64.0769V40.44H66.5969V40.24H63.4769V40.04H62.4369V39.44H61.9969V38.84H62.7169V38.04H63.7569V37.44H64.7569V37.04H62.7569V36.84H62.9969V36.04H63.9169V35.84H62.0369V35.44H63.1969V34.64H61.6769V34.04H62.6769V33.64H59.1169V33.04H58.3569V32.64H61.0369V32.08C61.0369 31.9733 61.0502 31.8933 61.0769 31.84H63.7569C63.7569 31.7333 63.8102 31.6 63.9169 31.44H63.1969C63.4102 31.1467 63.7035 31 64.0769 31H70.3969C70.6902 31 70.9435 31.04 71.1569 31.12C71.3702 31.2 71.5435 31.3067 71.6769 31.44H72.3969C72.5035 31.5467 72.6102 31.68 72.7169 31.84H70.0369C70.0369 31.8667 70.0369 31.88 70.0369 31.88C70.0635 31.88 70.0769 31.8933 70.0769 31.92L70.5169 32.64H67.8369L68.0769 33.04H68.8369L69.1969 33.64H72.7569L72.9969 34.04H72.0369L72.3969 34.64H73.8769L74.3969 35.44H73.2369L73.4769 35.84H75.3569L75.4769 36.04H74.5569L75.0369 36.84H74.7969L74.9169 37.04H76.9169L77.1569 37.44H76.1569L76.5569 38.04H75.5169L75.9969 38.84H75.2369L75.5969 39.44H76.0369L76.4369 40.04H77.4769L77.5969 40.24H78.1969V40.04H79.3969V39.44H78.2369V38.84H78.5169V38.04H79.3169V37.44H80.2769V37.04H78.3569V36.04H80.7169V35.84H80.6769V35.44H78.1569V34.64H79.0369V34.04H80.1969V33.64H77.7569V33.04H80.8769V32.64H80.6369V32.08C80.6369 31.9733 80.6502 31.8933 80.6769 31.84H79.3569C79.3835 31.7333 79.4502 31.6 79.5569 31.44H78.1969C78.4102 31.1467 78.7035 31 79.0769 31H86.3169C86.6902 31 86.9835 31.1467 87.1969 31.44H88.5569C88.6102 31.5467 88.6635 31.68 88.7169 31.84H90.0369V32.64H90.2769V33.04H87.1569V33.64H89.5969V34.04H88.4369V34.64H87.5569V35.44H90.0769V35.84H90.1169V36.04H87.7569V37.04H89.6769V37.44H88.7169V38.04H87.9169V38.84H87.6369V39.44H88.7969V40.04H87.5969V40.24H90.3969V40.44H88.9169V40.84H88.5169V41.44H87.1969V42.24H85.8369V42.64H87.9169V42.84H89.2769V43.44H88.9169V43.84H88.1969V44.44H87.9569V44.64H86.5169V45.44H89.0369V45.84H85.0769V46.64H87.4369V47.04H86.3969V47.24H87.9169V47.84H87.8769V48.04H89.1569V48.24H88.2769V49.04H88.3569V49.84H89.4769V50.04H87.5569V50.24H88.7169V50.84H86.8769V51.04H87.5169V51.84H88.7569V52.24H90.0769V52.44H87.5169V53.24H89.1569V53.84H88.3169V54.44H86.5169V54.64H87.9169V55.44H87.3169V56.24H91.9569V56.84ZM80.9969 40.24H80.7169L80.8369 40.44H80.9969V40.24ZM78.3169 40.44L78.5569 40.84H77.4769L77.8369 41.44H79.1169V40.84H79.5169V40.44H78.3169ZM77.7969 41.44H77.0769L77.5569 42.24H77.7969V41.44ZM75.1169 50.04L74.9969 49.84H73.8769L73.3569 49.04H73.2369L72.7169 48.24H73.5969L73.4369 48.04H72.3969V48.24H72.3569V49.04H72.9969V49.84H72.1969V50.04H75.1169ZM117.886 52.04H121.046V52.64H114.966V53.44H118.886V54.24H115.446V55.04H115.886V55.64H115.606V56.04H114.766V56.44H114.726V56.84H115.566V57.64H116.726V57.92C116.726 57.9733 116.713 58.0133 116.686 58.04H109.566C109.54 58.0933 109.526 58.16 109.526 58.24H112.286C112.206 58.5067 112.06 58.7067 111.846 58.84H111.086C110.953 58.9467 110.766 59 110.526 59H89.6862C89.4729 59 89.2729 58.9467 89.0863 58.84H89.8462C89.6596 58.7067 89.5129 58.5067 89.4062 58.24H86.6062C86.5796 58.1867 86.5662 58.12 86.5662 58.04H93.7263V57.64H92.5663V56.84H91.7262V56.44H91.7663V56.04H92.6063V55.64H92.8863V55.04H92.4463V54.24H95.8863V53.44H91.9663V52.64H98.0463V52.04H94.8863V51.64H95.8063V51.24H96.2063V50.84H91.7663V50.44H90.7263V49.84H94.4463V49.64H91.4863V49.24H92.3663V48.84H93.0063V48.24H92.9263V47.44H92.5263V46.64H91.9263V46.24H92.4063V45.44H91.9663V45.04H92.6063V44.44H92.7663V43.84H93.4863V43.64H92.8063V42.84H92.2063V42.24H92.3663V41.64H92.4463V40.84H93.0462V40.04H92.1663V39.24H92.2863V38.44H93.4063V37.84H92.8063V37.24H92.4863V37.04H94.1663V36.44H97.1263V36.04H95.9263V35.64H92.0463V35.44H92.4863V34.84H92.5263V34.24H92.6463V33.44H92.6063V32.44H92.5263V32.08C92.5263 31.9733 92.5396 31.8933 92.5663 31.84H92.1663C92.2729 31.28 92.6196 31 93.2063 31H113.726C114.34 31 114.686 31.28 114.766 31.84H115.166C115.193 31.8933 115.206 31.9733 115.206 32.08V32.44H115.286V33.44H115.326V34.24H115.206V34.84H115.166V35.44H114.726V35.64H118.606V36.04H119.806V36.44H116.846V37.04H115.166V37.24H115.486V37.84H116.086C116.033 38.1067 115.94 38.3067 115.806 38.44H114.686C114.5 38.68 114.233 38.8 113.886 38.8H101.886V39.24H101.766V40.04H102.646V40.84H102.046V41.32H113.166C113.46 41.32 113.713 41.4267 113.926 41.64H113.846C113.98 41.7733 114.073 41.9733 114.126 42.24H114.006V42.84H114.606V43.64H115.286V43.84H114.566V44.44H114.406V45.04H113.766V45.44H114.206V46.24H113.726V46.64H114.326V47.44H114.726V47.6C114.726 47.8933 114.66 48.1067 114.526 48.24H114.606C114.393 48.5333 114.1 48.68 113.726 48.68H102.606V48.84H101.966V49.24H101.086V49.64H104.046V49.84H100.326V50.44H101.366V50.84H105.806V51.2H118.126C118.26 51.2 118.366 51.2133 118.446 51.24H118.006C118.273 51.32 118.473 51.4533 118.606 51.64H117.686C117.793 51.8 117.86 51.9333 117.886 52.04ZM144.766 43.04H142.806C142.779 43.1467 142.753 43.2533 142.726 43.36C142.699 43.44 142.659 43.5333 142.606 43.64H143.726L143.606 44.04H142.646C142.566 44.28 142.459 44.5467 142.326 44.84H141.726C141.619 45.1067 141.473 45.3733 141.286 45.64H141.366C141.259 45.7733 141.166 45.9067 141.086 46.04C141.006 46.1733 140.913 46.3067 140.806 46.44H145.126L144.606 47.04H141.046C140.939 47.1733 140.806 47.3067 140.646 47.44C140.486 47.5733 140.339 47.7067 140.206 47.84H140.726C140.619 47.9467 140.486 48.0533 140.326 48.16C140.193 48.24 140.059 48.3333 139.926 48.44H141.246L141.086 48.56L141.446 49.24H140.486L140.926 50.04H141.046L141.166 50.24H141.126L141.526 51.04H141.926L142.166 51.44H139.086L139.406 52.04H142.206L142.446 52.44H141.566L141.886 53.04H145.846L146.286 53.84H143.646L143.966 54.44H142.726L143.366 55.64H143.646L143.886 56.04H143.766L143.886 56.24H142.006L142.446 57.04L142.526 57.24H141.286L141.486 57.68C141.566 57.7867 141.606 57.9067 141.606 58.04H142.446V58.12C142.446 58.4133 142.326 58.6533 142.086 58.84H143.166C143.033 58.9467 142.859 59 142.646 59H134.446C134.286 59 134.139 58.9867 134.006 58.96C133.899 58.9067 133.779 58.8667 133.646 58.84H132.566C132.353 58.7333 132.166 58.6 132.006 58.44C131.873 58.28 131.766 58.1467 131.686 58.04H130.886L130.806 57.92L130.526 57.24H131.806L131.686 57.04H127.886V57.24H125.846V58.04H129.086C129.033 58.4133 128.859 58.68 128.566 58.84H128.286C128.099 58.9467 127.899 59 127.686 59H119.846C119.606 59 119.419 58.9467 119.286 58.84H119.606C119.313 58.68 119.139 58.4133 119.086 58.04H115.886C115.886 58.0133 115.886 58 115.886 58C115.859 57.9733 115.846 57.9467 115.846 57.92V57.24H117.886V57.04H121.886V56.24H117.606V56.04H120.126V55.64H119.286V55.04H120.686V54.44H118.406V53.84H121.486V53.04H119.726V52.44H119.686V52.24H119.446V52.04H118.366V51.44H119.726V51.04H119.366V50.24H119.406V50.04H119.286V49.24H120.246V48.44H118.886V47.84H118.366V47.04H121.886V46.44H117.566V45.64H117.486V44.84H118.086V44.04H119.006V43.64H117.886V43.04H119.846V42.64H122.726V42.24H118.766V42.04H118.966V41.84H119.326V41.64H119.366V41.24H119.286V40.64H119.446V39.84H119.246V39.44H119.446V38.84H119.286V38.64H119.406V38.24H119.366V38.04H119.206V37.84H119.566V37.24H119.886V36.64H118.006V35.84H118.446V35.04H118.206V34.44H119.286V33.84H119.686V33.24H118.966V32.84H119.246V32.64H119.326V32.04H119.406C119.406 31.7467 119.526 31.48 119.766 31.24H121.926C122.086 31.08 122.313 31 122.606 31H134.446C135.593 31 136.659 31.08 137.646 31.24H135.526C136.593 31.4 137.606 31.6667 138.566 32.04H138.486C138.939 32.2 139.379 32.4 139.806 32.64H139.726L140.086 32.84H139.766C139.899 32.8933 140.006 32.96 140.086 33.04C140.193 33.12 140.299 33.1867 140.406 33.24H141.126C141.259 33.3467 141.393 33.4533 141.526 33.56C141.659 33.64 141.779 33.7333 141.886 33.84H141.486C141.619 33.9467 141.726 34.0533 141.806 34.16C141.913 34.24 142.019 34.3333 142.126 34.44H141.046C141.153 34.5467 141.246 34.6533 141.326 34.76C141.406 34.84 141.486 34.9333 141.566 35.04H141.766C141.979 35.3067 142.166 35.5733 142.326 35.84H141.926C142.006 35.9467 142.073 36.08 142.126 36.24C142.206 36.3733 142.286 36.5067 142.366 36.64H144.246L144.486 37.24H144.166C144.193 37.3467 144.219 37.4533 144.246 37.56C144.299 37.64 144.339 37.7333 144.366 37.84H143.966L144.046 38.04H144.206C144.233 38.0933 144.246 38.16 144.246 38.24L144.366 38.64H144.486C144.486 38.72 144.499 38.7867 144.526 38.84H144.566C144.593 38.9467 144.606 39.0533 144.606 39.16C144.633 39.24 144.646 39.3333 144.646 39.44H144.126C144.126 39.4933 144.126 39.56 144.126 39.64C144.126 39.72 144.139 39.7867 144.166 39.84H144.406C144.406 39.9733 144.406 40.1067 144.406 40.24C144.433 40.3733 144.446 40.5067 144.446 40.64V41.04H144.686V41.24H144.446V41.64H144.046C144.046 41.6667 144.033 41.6933 144.006 41.72C144.006 41.7467 144.006 41.7867 144.006 41.84H144.406C144.406 41.8667 144.393 41.8933 144.366 41.92C144.366 41.9467 144.366 41.9867 144.366 42.04H146.246C146.219 42.0933 146.206 42.16 146.206 42.24H146.726L146.686 42.64H144.846C144.793 42.8 144.766 42.9333 144.766 43.04ZM128.766 42.24H132.726V42.64H129.846V42.68H132.766C132.953 42.68 133.099 42.6667 133.206 42.64H135.046C135.339 42.56 135.606 42.4267 135.846 42.24H135.286L135.486 42.04H133.606C133.686 41.96 133.739 41.8933 133.766 41.84H133.366L133.486 41.64H133.886L134.006 41.24H134.206C134.233 41.1867 134.246 41.12 134.246 41.04H134.006L134.046 40.64C134.046 40.3733 134.006 40.1067 133.926 39.84H133.686C133.659 39.7867 133.633 39.72 133.606 39.64C133.606 39.56 133.579 39.4933 133.526 39.44H134.086C133.979 39.2267 133.833 39.0267 133.646 38.84H133.566C133.486 38.76 133.393 38.6933 133.286 38.64H133.166C132.899 38.5067 132.619 38.44 132.326 38.44H129.406V38.64H129.286V38.84H129.446V39.44H129.246V39.84H129.446V40.64H129.286V41.24H129.366V41.64H129.326V41.84H128.966V42.04H128.766V42.24ZM131.926 51.44L131.766 51.04H131.326L131.006 50.28H129.366V51.04H129.726V51.44H131.926ZM128.366 51.44V52.04H129.126L128.886 51.44H128.366ZM132.006 52.24L131.926 52.04H129.446V52.24H129.686V52.44H129.726V53.04H131.486V53.84H128.406V54.44H130.686V55.04H129.286V55.64H130.126V56.04H127.606V56.24H133.246L133.126 56.04H133.246L133.046 55.64H132.726L132.486 55.04L132.206 54.44H133.486L133.206 53.84H135.806L135.446 53.04H131.486L131.246 52.44H132.126L132.006 52.24ZM176.633 56.84L176.913 57.64H176.233L176.313 57.84C176.313 57.8667 176.313 57.9067 176.313 57.96C176.34 57.9867 176.353 58.0133 176.353 58.04H176.113V58.12C176.113 58.44 175.993 58.68 175.753 58.84H175.793C175.66 58.9467 175.486 59 175.273 59H167.873C167.686 59 167.526 58.9867 167.393 58.96C167.286 58.9067 167.166 58.8667 167.033 58.84C166.82 58.7333 166.66 58.6133 166.553 58.48C166.446 58.32 166.366 58.1733 166.313 58.04H166.513V58L166.433 57.84L166.353 57.64H167.033L166.753 56.84H165.993L165.873 56.44H167.513L167.233 55.64H166.753L166.633 55.36H158.033L157.953 55.64H157.473L157.193 56.44H156.753L156.593 56.84H156.353L156.073 57.64H156.113L156.033 57.84L155.993 58L155.953 58.04H155.753C155.7 58.1733 155.62 58.32 155.513 58.48C155.406 58.6133 155.246 58.7333 155.033 58.84H156.233C156.126 58.8667 156.006 58.9067 155.873 58.96C155.74 58.9867 155.58 59 155.393 59H147.993C147.78 59 147.62 58.9467 147.513 58.84H146.313C146.046 58.6533 145.913 58.4133 145.913 58.12V58.04H146.153C146.153 57.96 146.166 57.8933 146.193 57.84L146.233 57.64H146.193L146.473 56.84H146.713L146.873 56.44H147.313L147.593 55.64H148.033L148.313 54.84H146.753L146.913 54.44H146.793L146.993 53.84H147.393L147.473 53.64H146.593L146.873 52.84H148.233L148.353 52.44H147.113L147.193 52.24H147.393L147.673 51.44H147.553L147.753 50.84H147.913L148.193 50.04H148.713L148.913 49.44L148.993 49.24H150.993L151.073 49.04H150.953L151.153 48.44H148.913L149.193 47.64H149.913L149.993 47.44H149.553L149.633 47.24H150.913L151.193 46.44H149.633L149.793 46.04H150.393L150.673 45.24H150.313L150.513 44.64H150.953L151.233 43.84H151.113L151.193 43.64H150.273L150.433 43.24H151.313L151.513 42.64H151.113L151.153 42.44H151.873L152.153 41.64H151.273L151.473 41.04H151.033L151.153 40.64H148.393L148.513 40.24H147.993L148.273 39.44H147.753L147.993 38.84H149.553L149.833 38.04H153.833L154.033 37.44H152.113L152.273 37.04H153.753L154.033 36.24H152.713L152.913 35.64H153.753L154.033 34.84H153.913L154.193 34.04H153.073L153.113 33.84H156.953L157.233 33.04H157.113L157.193 32.84H155.793L155.953 32.32L156.073 32.04H156.473L156.713 31.64H156.593C156.726 31.4533 156.913 31.3067 157.153 31.2C157.393 31.0667 157.686 31 158.033 31H166.713C167.06 31 167.353 31.0667 167.593 31.2C167.833 31.3067 168.02 31.4533 168.153 31.64H168.313L168.553 32.04H168.153C168.206 32.1467 168.233 32.24 168.233 32.32L168.433 32.84H169.833L169.873 33.04H169.993L170.273 33.84H166.473L166.553 34.04H167.673L167.953 34.84H168.073L168.353 35.64H167.513L167.713 36.24H169.033L169.313 37.04H167.833L167.993 37.44H169.913L170.113 38.04H166.113L166.393 38.84H164.833L165.033 39.44H165.513L165.793 40.24H164.233L164.393 40.64H170.753L170.873 41.04H170.553L170.753 41.64H169.953L170.233 42.44H169.273L169.313 42.64H170.753L170.953 43.24H170.993L171.153 43.64H169.833L169.913 43.84H171.193L171.473 44.64H171.913L172.113 45.24H171.993L172.273 46.04H172.913L173.073 46.44H171.913L172.193 47.24H172.993L173.033 47.44H172.833L172.913 47.64H172.193L172.433 48.44H174.713L174.913 49.04H175.033L175.113 49.24H173.073L173.153 49.44H173.193L173.393 50.04H172.873L173.153 50.84H172.953L173.193 51.44H173.313L173.593 52.24H173.393L173.473 52.44H174.713L174.873 52.84H173.473L173.753 53.64H174.633L174.713 53.84H174.313L174.553 54.44H174.633L174.793 54.84H176.353L176.633 55.64H177.113L177.393 56.44H175.753L175.873 56.84H176.633ZM159.913 41.04H160.393L160.193 41.64H161.833L161.633 41.04H161.953L161.833 40.64H160.033L159.913 41.04ZM161.233 42.44L161.033 41.76L160.833 42.44H161.233ZM158.833 47.24L158.753 47.44H159.193L159.153 47.56H163.673L163.633 47.44H163.833L163.793 47.24H162.993L162.753 46.44H163.913L163.793 46.04H163.113L162.873 45.24H162.993L162.833 44.64H162.393L162.153 43.84H160.873L160.793 43.64H162.113L161.993 43.24H161.953L161.753 42.64H160.473L160.313 43.24H159.433L159.313 43.64H160.193L160.153 43.84H160.273L160.033 44.64H159.593L159.393 45.24H159.753L159.513 46.04H158.913L158.793 46.44H160.353L160.113 47.24H158.833ZM201.975 34.64H194.535V35.44H197.375V36.04H200.455V36.64H200.375V37.24H201.535V38.04H197.175V38.24H196.335V38.52C196.335 38.7067 196.295 38.88 196.215 39.04H199.055C198.868 39.4133 198.562 39.6 198.135 39.6H191.495V39.64H191.895V40.44H191.975V41.24H191.775V42.04H191.255V42.64H193.255V43.04H191.575V43.64H190.695V44.44H192.215V44.84H191.935V45.64H191.655V46.44H191.175V47.24H190.735V47.84H192.215V48.44H191.615V49.24H191.855V49.44H192.135V49.84H194.135V50.44H192.775V51.24H193.375V52.04H191.695V52.84H192.375V53.24H192.655V53.84H193.295V54.64H193.055V55.24H192.015V55.84H191.895V56.24H191.855V56.84H192.295V57.44H191.935V57.92C191.935 58.0533 191.922 58.16 191.895 58.24H191.495C191.415 58.5067 191.268 58.7067 191.055 58.84H191.135C191.002 58.9467 190.815 59 190.575 59H182.575C182.362 59 182.162 58.9467 181.975 58.84H181.895C181.708 58.7067 181.562 58.5067 181.455 58.24H181.815C181.788 58.16 181.775 58.0533 181.775 57.92V57.44H182.135V56.84H181.695V56.24H181.735V55.84H181.855V55.24H182.895V54.64H183.135V53.84H182.495V53.24H182.215V52.84H181.535V52.04H183.215V51.24H182.615V50.44H183.975V49.84H181.975V49.44H181.695V49.24H181.455V48.44H182.055V47.84H180.575V47.24H181.015V46.44H181.495V45.64H181.775V44.84H182.055V44.44H180.535V43.64H181.415V43.04H183.095V42.64H181.095V42.04H181.615V41.24H181.815V40.44H181.735V39.64H181.335V39.6H174.695C174.295 39.6 173.975 39.4133 173.735 39.04H170.895C170.868 38.96 170.842 38.88 170.815 38.8C170.762 38.72 170.735 38.6267 170.735 38.52V38.24H171.575V38.04H175.935V37.24H174.775V36.64H174.855V36.04H171.775V35.44H168.935V34.64H176.375V34.04H172.215V33.24H173.015V32.44H174.055V32.24H174.655V32.08C174.655 31.8133 174.735 31.6 174.895 31.44H174.015C174.228 31.1467 174.522 31 174.895 31H198.335C198.708 31 199.002 31.1467 199.215 31.44H200.055C200.188 31.6267 200.255 31.84 200.255 32.08V32.24H199.655V32.44H198.615V33.24H197.815V34.04H201.975V34.64ZM227.735 43.64H229.735V44.44H229.375V45.24H229.015V45.84H228.175V46.04H228.495V46.24H227.375V46.64H229.295V47.24H228.135V47.44H228.175C228.175 47.5733 228.161 47.7067 228.135 47.84C228.135 47.9733 228.135 48.1067 228.135 48.24H228.095C228.068 48.32 228.055 48.44 228.055 48.6V49.04H227.855C227.828 49.0933 227.815 49.16 227.815 49.24C227.815 49.32 227.815 49.3867 227.815 49.44H228.215L228.095 50.24H227.735C227.708 50.3733 227.681 50.5067 227.655 50.64C227.655 50.7733 227.628 50.9067 227.575 51.04H228.015C228.015 51.0667 228.001 51.0933 227.975 51.12C227.975 51.1467 227.975 51.1867 227.975 51.24H228.575C228.575 51.2667 228.561 51.2933 228.535 51.32C228.535 51.3467 228.535 51.3867 228.535 51.44H227.815C227.788 51.5467 227.761 51.6533 227.735 51.76C227.708 51.84 227.681 51.9333 227.655 52.04H227.535L227.295 52.64H226.855C226.828 52.7467 226.788 52.8533 226.735 52.96C226.681 53.04 226.628 53.1333 226.575 53.24H226.935C226.881 53.3733 226.815 53.5067 226.735 53.64H226.495C226.468 53.7467 226.415 53.8533 226.335 53.96C226.281 54.04 226.228 54.1333 226.175 54.24H227.415L227.135 54.64H225.655L225.215 55.24H225.655L225.095 55.84H225.535C225.508 55.8667 225.468 55.8933 225.415 55.92C225.388 55.9467 225.361 55.9867 225.335 56.04H225.815C225.735 56.0933 225.655 56.16 225.575 56.24C225.521 56.32 225.455 56.3867 225.375 56.44H224.615C224.535 56.4933 224.455 56.56 224.375 56.64C224.295 56.72 224.201 56.7867 224.095 56.84H224.375C224.295 56.8933 224.201 56.96 224.095 57.04C224.015 57.12 223.921 57.1867 223.815 57.24H223.735C223.495 57.3733 223.255 57.5067 223.015 57.64C222.775 57.7733 222.521 57.9067 222.255 58.04H222.135C222.055 58.0667 221.975 58.0933 221.895 58.12C221.815 58.1467 221.735 58.1867 221.655 58.24C221.468 58.32 221.281 58.4 221.095 58.48C220.935 58.5333 220.748 58.5867 220.535 58.64H220.495C219.615 58.9067 218.655 59.1067 217.615 59.24H217.655C217.228 59.2933 216.775 59.3333 216.295 59.36C215.841 59.3867 215.388 59.4 214.935 59.4C214.455 59.4 213.988 59.3867 213.535 59.36C213.081 59.3333 212.628 59.2933 212.175 59.24C211.161 59.1333 210.188 58.9333 209.255 58.64H209.295C209.108 58.5867 208.921 58.5333 208.735 58.48C208.548 58.4 208.361 58.32 208.175 58.24H208.135C208.055 58.1867 207.975 58.1467 207.895 58.12C207.815 58.0933 207.735 58.0667 207.655 58.04H207.775C207.508 57.9067 207.255 57.7733 207.015 57.64C206.775 57.5067 206.535 57.3733 206.295 57.24H206.375L205.775 56.84H205.535C205.428 56.7867 205.335 56.72 205.255 56.64C205.175 56.56 205.095 56.4933 205.015 56.44H205.775L205.295 56.04H204.815C204.788 55.9867 204.761 55.9467 204.735 55.92C204.708 55.8933 204.668 55.8667 204.615 55.84H204.215C204.108 55.7333 204.001 55.64 203.895 55.56C203.815 55.4533 203.735 55.3467 203.655 55.24H203.215L202.735 54.64H204.215L203.975 54.24H202.695C202.641 54.1333 202.588 54.04 202.535 53.96C202.481 53.8533 202.428 53.7467 202.375 53.64H202.615C202.535 53.5067 202.468 53.3733 202.415 53.24H202.055C202.001 53.1333 201.948 53.04 201.895 52.96C201.868 52.8533 201.828 52.7467 201.775 52.64H202.255L202.015 52.04H202.135C202.108 51.9333 202.081 51.84 202.055 51.76C202.028 51.6533 202.001 51.5467 201.975 51.44H202.415C202.388 51.3867 202.375 51.32 202.375 51.24H201.975C201.975 51.1867 201.961 51.1467 201.935 51.12C201.935 51.0933 201.935 51.0667 201.935 51.04H201.855C201.828 50.9067 201.801 50.7733 201.775 50.64C201.748 50.5067 201.721 50.3733 201.695 50.24H201.895C201.868 50.1067 201.841 49.9733 201.815 49.84C201.815 49.7067 201.815 49.5733 201.815 49.44H201.575L201.535 49.04H201.815V48.6C201.815 48.5467 201.801 48.4933 201.775 48.44C201.775 48.36 201.775 48.2933 201.775 48.24H201.255C201.228 48.1067 201.215 47.9733 201.215 47.84C201.215 47.7067 201.215 47.5733 201.215 47.44H201.495V47.24H201.375V46.64H202.175V46.24H200.775V46.04H201.535V45.84H201.495V45.24H201.295V44.44H201.535V43.64H201.255V43.04H199.775V42.24H201.495C201.521 42.1867 201.535 42.12 201.535 42.04H202.175V41.84H201.695V41.44H201.735L201.815 40.64H201.735C201.735 40.5333 201.735 40.44 201.735 40.36C201.761 40.2533 201.788 40.1467 201.815 40.04H201.695C201.695 39.9333 201.695 39.84 201.695 39.76C201.721 39.6533 201.748 39.5467 201.775 39.44H201.695C201.721 39.3333 201.748 39.24 201.775 39.16C201.801 39.0533 201.828 38.9467 201.855 38.84H200.735C200.735 38.7867 200.735 38.7467 200.735 38.72C200.761 38.6933 200.775 38.6667 200.775 38.64H201.975L202.095 38.24H202.015L202.095 38.04H202.695C202.721 37.9867 202.748 37.92 202.775 37.84C202.801 37.76 202.828 37.6933 202.855 37.64H202.455C202.535 37.4 202.641 37.1333 202.775 36.84H202.655C202.735 36.7067 202.801 36.5733 202.855 36.44C202.935 36.28 203.015 36.1467 203.095 36.04H203.215L203.335 35.84H202.695L202.815 35.64H203.455L203.575 35.44H203.495L203.975 34.84H203.695L204.215 34.24C204.348 34.1067 204.481 33.9733 204.615 33.84C204.775 33.68 204.935 33.5467 205.095 33.44H204.695L204.935 33.24H204.495C204.548 33.1867 204.588 33.1467 204.615 33.12C204.668 33.0933 204.721 33.0667 204.775 33.04H205.775C205.881 32.9867 205.988 32.92 206.095 32.84C206.201 32.76 206.308 32.6933 206.415 32.64H206.535C206.801 32.5067 207.068 32.3733 207.335 32.24C207.601 32.08 207.868 31.9467 208.135 31.84H208.255C208.788 31.6 209.375 31.4 210.015 31.24H210.215C210.988 31.0267 211.801 30.8667 212.655 30.76C213.508 30.6533 214.388 30.6 215.295 30.6C217.188 30.6 218.868 30.8133 220.335 31.24H220.095C220.388 31.32 220.681 31.4133 220.975 31.52C221.268 31.6 221.548 31.7067 221.815 31.84H221.655C221.948 31.9467 222.215 32.08 222.455 32.24C222.721 32.3733 222.988 32.5067 223.255 32.64H223.095L223.695 33.04H222.695C222.748 33.0667 222.788 33.0933 222.815 33.12C222.868 33.1467 222.921 33.1867 222.975 33.24H223.415C223.468 33.2667 223.521 33.2933 223.575 33.32C223.628 33.3467 223.668 33.3867 223.695 33.44H224.095C224.255 33.5467 224.401 33.68 224.535 33.84C224.695 33.9733 224.841 34.1067 224.975 34.24H225.015C225.121 34.3467 225.215 34.4533 225.295 34.56C225.375 34.64 225.455 34.7333 225.535 34.84H225.815L226.295 35.44H226.375C226.455 35.52 226.508 35.5867 226.535 35.64H225.895L226.015 35.84H226.695L226.815 36.04H226.695C226.775 36.1467 226.841 36.28 226.895 36.44C226.975 36.5733 227.055 36.7067 227.135 36.84H227.255L227.615 37.64H228.015L228.135 38.04H227.535L227.615 38.24H227.695L227.815 38.64H227.695C227.695 38.6667 227.695 38.6933 227.695 38.72C227.721 38.7467 227.735 38.7867 227.735 38.84H226.055C226.108 38.9467 226.135 39.0533 226.135 39.16C226.161 39.24 226.188 39.3333 226.215 39.44H228.295C228.321 39.5467 228.335 39.6533 228.335 39.76C228.361 39.84 228.375 39.9333 228.375 40.04H227.815C227.841 40.1467 227.855 40.2533 227.855 40.36C227.881 40.44 227.895 40.5333 227.895 40.64H228.415L228.495 41.44H227.975V41.56C227.975 41.5867 227.975 41.6267 227.975 41.68C228.001 41.7333 228.015 41.7867 228.015 41.84H229.095V42.04H228.135C228.161 42.0933 228.175 42.16 228.175 42.24H228.895C228.921 42.3733 228.935 42.5067 228.935 42.64C228.935 42.7733 228.935 42.9067 228.935 43.04H227.735V43.64ZM218.975 44.44H219.335V43.64H217.335V43.04H218.535C218.535 42.9067 218.535 42.7733 218.535 42.64C218.535 42.5067 218.521 42.3733 218.495 42.24H217.775C217.775 42.1867 217.761 42.1467 217.735 42.12C217.735 42.0933 217.735 42.0667 217.735 42.04H218.695V41.84H217.615C217.615 41.7867 217.601 41.7467 217.575 41.72C217.575 41.6933 217.575 41.6667 217.575 41.64V41.44H218.055C218.055 41.3067 218.041 41.1733 218.015 41.04C218.015 40.88 218.001 40.7467 217.975 40.64H217.455C217.428 40.5333 217.401 40.44 217.375 40.36C217.348 40.2533 217.308 40.1467 217.255 40.04H217.815C217.735 39.8267 217.628 39.6267 217.495 39.44H215.415C215.281 39.2267 215.068 39.0267 214.775 38.84H216.455C216.295 38.7333 216.175 38.6667 216.095 38.64H216.215C215.815 38.48 215.375 38.4 214.895 38.4C214.415 38.4 213.975 38.48 213.575 38.64H212.415C212.308 38.6667 212.175 38.7333 212.015 38.84H213.135C212.921 38.9733 212.708 39.1733 212.495 39.44H212.575C212.441 39.6267 212.335 39.8267 212.255 40.04H212.375C212.348 40.1467 212.321 40.2533 212.295 40.36C212.268 40.44 212.228 40.5333 212.175 40.64H212.255C212.228 40.7467 212.201 40.88 212.175 41.04C212.175 41.1733 212.175 41.3067 212.175 41.44H212.095V41.84H212.575V42.04H211.935V42.24H210.175V43.04H211.655V43.64H211.935V44.44H211.695V45.24H211.895V45.84H211.935C211.935 45.92 211.948 45.9867 211.975 46.04H211.175V46.24H212.575V46.64H211.775V47.24H211.895V47.44H211.615C211.615 47.5733 211.615 47.7067 211.615 47.84C211.641 47.9733 211.655 48.1067 211.655 48.24H212.215V48.36C212.215 48.4667 212.215 48.5867 212.215 48.72C212.215 48.8267 212.228 48.9333 212.255 49.04H211.975C212.001 49.0933 212.015 49.16 212.015 49.24C212.015 49.32 212.028 49.3867 212.055 49.44H212.295C212.321 49.5733 212.361 49.7067 212.415 49.84C212.468 49.9733 212.521 50.1067 212.575 50.24H212.375C212.535 50.5333 212.748 50.8 213.015 51.04H213.095C213.148 51.0667 213.201 51.1067 213.255 51.16C213.308 51.1867 213.361 51.2133 213.415 51.24H213.775C213.855 51.2667 213.935 51.3067 214.015 51.36C214.095 51.3867 214.175 51.4133 214.255 51.44H213.775C214.095 51.5467 214.468 51.6 214.895 51.6C215.321 51.6 215.695 51.5467 216.015 51.44H216.695C216.775 51.4133 216.855 51.3867 216.935 51.36C217.015 51.3067 217.095 51.2667 217.175 51.24H216.535C216.588 51.2133 216.641 51.1867 216.695 51.16C216.748 51.1067 216.801 51.0667 216.855 51.04H216.415C216.655 50.8533 216.868 50.5867 217.055 50.24H217.415C217.548 49.9467 217.655 49.68 217.735 49.44H217.335C217.361 49.3867 217.375 49.32 217.375 49.24C217.375 49.16 217.388 49.0933 217.415 49.04H217.615C217.641 48.9333 217.655 48.8267 217.655 48.72C217.655 48.5867 217.655 48.4667 217.655 48.36V48.24H217.735C217.735 48.1067 217.735 47.9733 217.735 47.84C217.735 47.7067 217.748 47.5733 217.775 47.44H217.735V47.24H218.895V46.64H216.975V46.24H218.095V46.04H217.775V45.84H218.615V45.24H218.975V44.44ZM257.422 43.04H255.462C255.436 43.1467 255.409 43.2533 255.382 43.36C255.356 43.44 255.316 43.5333 255.262 43.64H256.382L256.262 44.04H255.302C255.222 44.28 255.116 44.5467 254.982 44.84H254.382C254.276 45.1067 254.129 45.3733 253.942 45.64H254.022C253.916 45.7733 253.822 45.9067 253.742 46.04C253.662 46.1733 253.569 46.3067 253.462 46.44H257.782L257.262 47.04H253.702C253.596 47.1733 253.462 47.3067 253.302 47.44C253.142 47.5733 252.996 47.7067 252.862 47.84H253.382C253.276 47.9467 253.142 48.0533 252.982 48.16C252.849 48.24 252.716 48.3333 252.582 48.44H253.902L253.742 48.56L254.102 49.24H253.142L253.582 50.04H253.702L253.822 50.24H253.782L254.182 51.04H254.582L254.822 51.44H251.742L252.062 52.04H254.862L255.102 52.44H254.222L254.542 53.04H258.502L258.942 53.84H256.302L256.622 54.44H255.382L256.022 55.64H256.302L256.542 56.04H256.422L256.542 56.24H254.662L255.102 57.04L255.182 57.24H253.942L254.142 57.68C254.222 57.7867 254.262 57.9067 254.262 58.04H255.102V58.12C255.102 58.4133 254.982 58.6533 254.742 58.84H255.822C255.689 58.9467 255.516 59 255.302 59H247.102C246.942 59 246.796 58.9867 246.662 58.96C246.556 58.9067 246.436 58.8667 246.302 58.84H245.222C245.009 58.7333 244.822 58.6 244.662 58.44C244.529 58.28 244.422 58.1467 244.342 58.04H243.542L243.462 57.92L243.182 57.24H244.462L244.342 57.04H240.542V57.24H238.502V58.04H241.742C241.689 58.4133 241.516 58.68 241.222 58.84H240.942C240.756 58.9467 240.556 59 240.342 59H232.502C232.262 59 232.076 58.9467 231.942 58.84H232.262C231.969 58.68 231.796 58.4133 231.742 58.04H228.542C228.542 58.0133 228.542 58 228.542 58C228.516 57.9733 228.502 57.9467 228.502 57.92V57.24H230.542V57.04H234.542V56.24H230.262V56.04H232.782V55.64H231.942V55.04H233.342V54.44H231.062V53.84H234.142V53.04H232.382V52.44H232.342V52.24H232.102V52.04H231.022V51.44H232.382V51.04H232.022V50.24H232.062V50.04H231.942V49.24H232.902V48.44H231.542V47.84H231.022V47.04H234.542V46.44H230.222V45.64H230.142V44.84H230.742V44.04H231.662V43.64H230.542V43.04H232.502V42.64H235.382V42.24H231.422V42.04H231.622V41.84H231.982V41.64H232.022V41.24H231.942V40.64H232.102V39.84H231.902V39.44H232.102V38.84H231.942V38.64H232.062V38.24H232.022V38.04H231.862V37.84H232.222V37.24H232.542V36.64H230.662V35.84H231.102V35.04H230.862V34.44H231.942V33.84H232.342V33.24H231.622V32.84H231.902V32.64H231.982V32.04H232.062C232.062 31.7467 232.182 31.48 232.422 31.24H234.582C234.742 31.08 234.969 31 235.262 31H247.102C248.249 31 249.316 31.08 250.302 31.24H248.182C249.249 31.4 250.262 31.6667 251.222 32.04H251.142C251.596 32.2 252.036 32.4 252.462 32.64H252.382L252.742 32.84H252.422C252.556 32.8933 252.662 32.96 252.742 33.04C252.849 33.12 252.956 33.1867 253.062 33.24H253.782C253.916 33.3467 254.049 33.4533 254.182 33.56C254.316 33.64 254.436 33.7333 254.542 33.84H254.142C254.276 33.9467 254.382 34.0533 254.462 34.16C254.569 34.24 254.676 34.3333 254.782 34.44H253.702C253.809 34.5467 253.902 34.6533 253.982 34.76C254.062 34.84 254.142 34.9333 254.222 35.04H254.422C254.636 35.3067 254.822 35.5733 254.982 35.84H254.582C254.662 35.9467 254.729 36.08 254.782 36.24C254.862 36.3733 254.942 36.5067 255.022 36.64H256.902L257.142 37.24H256.822C256.849 37.3467 256.876 37.4533 256.902 37.56C256.956 37.64 256.996 37.7333 257.022 37.84H256.622L256.702 38.04H256.862C256.889 38.0933 256.902 38.16 256.902 38.24L257.022 38.64H257.142C257.142 38.72 257.156 38.7867 257.182 38.84H257.222C257.249 38.9467 257.262 39.0533 257.262 39.16C257.289 39.24 257.302 39.3333 257.302 39.44H256.782C256.782 39.4933 256.782 39.56 256.782 39.64C256.782 39.72 256.796 39.7867 256.822 39.84H257.062C257.062 39.9733 257.062 40.1067 257.062 40.24C257.089 40.3733 257.102 40.5067 257.102 40.64V41.04H257.342V41.24H257.102V41.64H256.702C256.702 41.6667 256.689 41.6933 256.662 41.72C256.662 41.7467 256.662 41.7867 256.662 41.84H257.062C257.062 41.8667 257.049 41.8933 257.022 41.92C257.022 41.9467 257.022 41.9867 257.022 42.04H258.902C258.876 42.0933 258.862 42.16 258.862 42.24H259.382L259.342 42.64H257.502C257.449 42.8 257.422 42.9333 257.422 43.04ZM241.422 42.24H245.382V42.64H242.502V42.68H245.422C245.609 42.68 245.756 42.6667 245.862 42.64H247.702C247.996 42.56 248.262 42.4267 248.502 42.24H247.942L248.142 42.04H246.262C246.342 41.96 246.396 41.8933 246.422 41.84H246.022L246.142 41.64H246.542L246.662 41.24H246.862C246.889 41.1867 246.902 41.12 246.902 41.04H246.662L246.702 40.64C246.702 40.3733 246.662 40.1067 246.582 39.84H246.342C246.316 39.7867 246.289 39.72 246.262 39.64C246.262 39.56 246.236 39.4933 246.182 39.44H246.742C246.636 39.2267 246.489 39.0267 246.302 38.84H246.222C246.142 38.76 246.049 38.6933 245.942 38.64H245.822C245.556 38.5067 245.276 38.44 244.982 38.44H242.062V38.64H241.942V38.84H242.102V39.44H241.902V39.84H242.102V40.64H241.942V41.24H242.022V41.64H241.982V41.84H241.622V42.04H241.422V42.24ZM244.582 51.44L244.422 51.04H243.982L243.662 50.28H242.022V51.04H242.382V51.44H244.582ZM241.022 51.44V52.04H241.782L241.542 51.44H241.022ZM244.662 52.24L244.582 52.04H242.102V52.24H242.342V52.44H242.382V53.04H244.142V53.84H241.062V54.44H243.342V55.04H241.942V55.64H242.782V56.04H240.262V56.24H245.902L245.782 56.04H245.902L245.702 55.64H245.382L245.142 55.04L244.862 54.44H246.142L245.862 53.84H248.462L248.102 53.04H244.142L243.902 52.44H244.782L244.662 52.24Z" fill="url(#paint0_linear_31_23)"/>
<defs>
<linearGradient id="paint0_linear_31_23" x1="131.5" y1="0" x2="131.5" y2="60" gradientUnits="userSpaceOnUse">
<stop stop-color="white"/>
<stop offset="0.0001" stop-color="white"/>
<stop offset="1" stop-color="white" stop-opacity="0"/>
</linearGradient>
</defs>
</svg>
